<?xml version="1.0" encoding="UTF-8" standalone="yes"?>
<svg xmlns="http://www.w3.org/2000/svg" width="620" height="324">
<path style="fill:#41a1db; stroke:none;" d="M0 0L0 161L84 161C78.1186 152.651 69.9686 145.578 62.9853 138.119C61.0672 136.07 58.3726 134.404 57.0239 131.896C54.0567 126.378 56 116.138 56 110L56 59L56 32C56.0017 28.226 55.3633 23.42 59.1481 21.179C65.0743 17.6702 77.2767 20 84 20L124 20C131.591 20 139.578 20.7671 147 19C145.777 20.1952 145.58 20.3164 144 21C151.614 31.8196 162.641 40.5433 171.855 49.9992C182.772 61.2038 193.597 74.5192 206 84L206 0L0 0z"/>
<path style="fill:#269ef8; stroke:none;" d="M206 0L206 84C208.599 77.8061 207 68.6859 207 62L207 20C207 13.846 208.395 5.70731 206 0z"/>
<path style="fill:#ffca00; stroke:none;" d="M207 0L207 162L280 162C273.564 159.299 263.951 161 257 161L208 161L208 48L208 16C208 10.9198 208.981 4.71994 207 0z"/>
<path style="fill:#fec311; stroke:none;" d="M208 0L208 161C234.033 161 260.04 161.464 286 162C280.737 152.976 268.221 148.149 264.6 138C263.409 134.664 264 130.486 264 127C264 120.103 262.715 111.738 264.313 105.015C264.934 102.404 267.117 100.476 267.517 97.8302C267.982 94.7505 267.016 91.1445 267.001 88C266.953 77.9975 266.455 67.8757 268.31 58C272.784 34.1912 296.301 14.6782 321 22.0424C333.283 25.7046 339.312 34.0917 348.17 42.385C362.032 55.3645 375.308 68.946 388.89 82.1937C395.032 88.1849 402.681 99.3046 411 102L411 0L208 0z"/>
<path style="fill:#ffd200; stroke:none;" d="M411 0L411 104C414.105 96.6005 412 85.0073 412 77L412 24C412 16.7844 413.802 6.6777 411 0z"/>
<path style="fill:#ac41ad; stroke:none;" d="M412 0L412 161C413.769 156.785 413 151.536 413 147L413 120L413 36L413 13C413 8.73969 413.661 3.95865 412 0z"/>
<path style="fill:#b54f98; stroke:none;" d="M413 0L413 161L511 161C504.653 151.594 495.009 144.552 487.576 136C484.786 132.79 480.208 129.38 479.361 125C478.311 119.568 483.199 113.368 485.799 109C490.92 100.402 495.89 91.6921 500.85 83C502.857 79.4809 506.186 75.1906 506.385 71C506.563 67.2686 502.482 59.0034 498.787 57.6929C496.362 56.8328 493.525 57.9776 491 57.6312C484.978 56.8048 479.586 51.7126 477.804 46C474.065 34.0107 487.977 22.6011 498.996 28.4421C507.937 33.1816 511.161 46.7088 516 55C523.431 46.0316 526.427 22.4933 543 26.9568C544.775 27.4348 546.437 28.2275 547.956 29.2585C550.272 30.8304 551.655 32.6189 553 35C556.248 35.9609 557.726 38.5396 560.093 40.912C563.672 44.4981 567.523 47.743 571.025 51.4244C581.847 62.8007 593.016 73.8269 604.196 84.8387C608.952 89.5227 613.878 96.3322 620 99L620 0L413 0z"/>
<path style="fill:#3ea5eb; stroke:none;" d="M101 20C104.699 21.552 109.017 21 113 21L136 21C139.707 21 144.418 21.9549 147 19C132.228 21.7423 116 20 101 20z"/>
<path style="fill:#2ea7e7; stroke:none;" d="M59 20C63.2151 21.7687 68.4645 21 73 21L101 21C96.7849 19.2313 91.5355 20 87 20L59 20z"/>
<path style="fill:#d2b933; stroke:none;" d="M307 20C309.332 20.9845 311.457 20.9813 314 21C311.668 20.0155 309.543 20.0187 307 20z"/>
<path style="fill:#7e8984; stroke:none;" d="M57 21L58 22L57 21z"/>
<path style="fill:#c87e3d; stroke:none;" d="M58 21C61.3401 47.4287 59 75.3539 59 102C59 108.662 59.1348 115.34 58.9853 122C58.894 126.068 58.0488 128.927 61 132L60 128C63.7201 127.203 63 124.39 63 121L63 103L63 23C64.1706 26.9602 64 30.8871 64 35L68 32L67 36C76.7261 30.232 87.993 32 99 32L99 21L58 21z"/>
<path style="fill:#ae6739; stroke:none;" d="M99 21L99 33C100.512 29.3957 100.512 24.6043 99 21z"/>
<path style="fill:#8b6554; stroke:none;" d="M100 21C104.469 22.8752 110.191 22 115 22L144 22C139.531 20.1248 133.809 21 129 21L100 21z"/>
<path style="fill:#caa842; stroke:none;" d="M301 21L302 22L301 21z"/>
<path style="fill:#637c7a; stroke:none;" d="M302.667 21.3333C302.222 21.7777 303.278 21.7223 303.333 21.6667C303.778 21.2223 302.722 21.2778 302.667 21.3333z"/>
<path style="fill:#1a6d71; stroke:none;" d="M275 99C275 86.6749 275.483 74.2963 275.576 62C275.724 42.294 294.689 26.1001 314 28.1736C326.075 29.4702 337.071 38.0143 342.096 48.9992C343.87 52.8784 346.081 57.6724 345.888 62.0038C345.655 67.234 343.553 73.3724 341.179 78C338.541 83.1421 334.749 87.493 329.999 90.7793C323.536 95.2514 316.785 97.0792 309 96.9961C299.319 96.8928 292.891 91.8696 285 87C285.587 90.1571 285.391 94.7091 287.603 97.2114C292.489 102.737 301.258 103.34 308 103.076C311.658 102.932 315.374 103.762 319 103.242C328.799 101.835 339.78 95.0495 344 86L347 87C348.724 85.9445 348.921 85.9642 351 86C351 69.7379 354.456 53.3599 344.895 39C328.375 14.188 288.35 15.8694 273.905 42C268.821 51.1966 270.318 59.0713 270.545 69C270.665 74.2849 270 79.6798 270 85C270 90.7624 267.53 98.4025 275 99z"/>
<path style="fill:#05646e; stroke:none;" d="M306 21C308.613 22.0977 311.165 21.9928 314 22C311.387 20.9023 308.836 21.0072 306 21z"/>
<path style="fill:#a6a34a; stroke:none;" d="M317 21C318.248 21.6848 318.548 21.7488 320 22C318.752 21.3152 318.452 21.2512 317 21z"/>
<path style="fill:#5a9dcb; stroke:none;" d="M56 22L56 133C59.3062 125.121 57 112.534 57 104L57 47C57 39.5202 58.9032 28.9187 56 22z"/>
<path style="fill:#c67f3f; stroke:none;" d="M57 22L57 134L99 134L99 123C92.3349 123 85.6646 123.078 79 122.996C75.8898 122.958 71.996 123.038 69.7423 120.486C65.5736 115.766 67.8452 101.967 68.0355 96C68.7171 74.6281 65.5545 53.3653 68 32C65.8764 32.8993 65.8993 32.8763 65 35C63.8294 31.0398 64 27.1129 64 23C61.1979 29.6777 63 39.7844 63 47L63 101L63 119C62.9922 122.787 63.3485 125.829 60 128L61 132C57.0198 125.287 59 114.676 59 107L59 48C59 40.5258 61.3302 28.3384 57 22z"/>
<path style="fill:#995433; stroke:none;" d="M100 22L100 33L123 33C126.226 33.0067 130.062 32.6333 132.411 35.3179C135.198 38.502 134.98 44.0491 134.999 48C135.038 56.0353 133.713 65.2634 136 73C132.888 75.7193 134 81.1095 134 85L134 110C133.999 113.169 134.702 117.9 132.258 120.397C130.046 122.656 125.853 121.999 123 122L100 122L100 134L145 134L145 22L100 22z"/>
<path style="fill:#848e55; stroke:none;" d="M298 22L299 23L298 22z"/>
<path style="fill:#9b9f4a; stroke:none;" d="M322 22L323 23L322 22z"/>
<path style="fill:#81655a; stroke:none;" d="M145 23L145 40C146.883 35.5135 146.883 27.4865 145 23z"/>
<path style="fill:#938f51; stroke:none;" d="M295 23L296 24L295 23z"/>
<path style="fill:#a3a452; stroke:none;" d="M325 23L326 24L325 23z"/>
<path style="fill:#248dc7; stroke:none;" d="M146 24L146 133C147.396 132.339 147.814 132.036 149 131C149.648 133.394 150.032 134.536 152 136C151.014 129.224 151.916 122.765 151.996 116C152.131 104.67 152 93.3307 152 82C152 68.2708 149.814 52.3831 153 39L157 40C156.528 38.5838 156.186 38.1863 155 37L161 40C160.66 42.0181 160.677 42.9677 161 45L164 44C165.314 45.6179 165.877 45.6933 168 46C162.564 38.2123 153.699 29.533 146 24z"/>
<path style="fill:#588369; stroke:none;" d="M293 24L294 25L293 24z"/>
<path style="fill:#75915e; stroke:none;" d="M327 24L328 25L327 24z"/>
<path style="fill:#778455; stroke:none;" d="M329 25L330 26L329 25z"/>
<path style="fill:#618159; stroke:none;" d="M289 26L290 27L289 26z"/>
<path style="fill:#8f9154; stroke:none;" d="M331 26L332 27L331 26z"/>
<path style="fill:#dc8c8a; stroke:none;" d="M490 26C491.506 26.683 492.315 26.8259 494 27C492.494 26.317 491.685 26.1741 490 26z"/>
<path style="fill:#eb9a57; stroke:none;" d="M537 26C538.769 26.7789 540.036 26.9124 542 27C540.231 26.2211 538.964 26.0876 537 26z"/>
<path style="fill:#989459; stroke:none;" d="M287 27L288 28L287 27z"/>
<path style="fill:#fed36b; stroke:none;" d="M486 46C485.78 44.3202 485.407 42.6578 485.911 40.9799C489.419 29.299 505.578 40.2443 495.915 47.3966C494.349 48.5561 492.849 48.7139 491 49C495.337 50.8198 500.649 48.7486 504.319 52.3179C509.451 57.3078 510.131 67.6505 518 69C517.598 71.5017 517.642 73.4894 518 76L525 72C521.661 60.7286 513.556 49.578 508.247 39C505.849 34.2213 503.411 29.5429 497.999 27.7029C492.561 25.854 482.667 26.7957 480.329 33.0432C478.576 37.726 482.657 43.2902 486 46z"/>
<path style="fill:#ed947c; stroke:none;" d="M534 27L535 28L534 27z"/>
<path style="fill:#f6a93f; stroke:none;" d="M520 62C528.324 55.0004 528.642 42.9257 537 36C536.804 30.5132 546.123 31 550 31C545.269 25.6388 535.842 25.6442 530.105 29.8542C524.896 33.6773 523.023 41.4242 520.247 47C519.035 49.4342 517.172 52.2043 517.055 54.9985C516.942 57.6812 518.63 59.864 520 62z"/>
<path style="fill:#a68f47; stroke:none;" d="M303 28C304.248 28.6848 304.548 28.7488 306 29C304.752 28.3152 304.452 28.2512 303 28z"/>
<path style="fill:#f8a82d; stroke:none;" d="M306 28.4391C300.388 29.3206 294.603 31.1337 290 34.5571C261.553 55.7141 280.903 102.211 316 96.5602C320.9 95.7713 325.874 93.9402 330 91.1497C358.987 71.5435 341.034 22.9357 306 28.4391z"/>
<path style="fill:#87885d; stroke:none;" d="M315.667 28.3333C315.222 28.7777 316.278 28.7222 316.333 28.6667C316.778 28.2223 315.722 28.2778 315.667 28.3333z"/>
<path style="fill:#7b8e60; stroke:none;" d="M334 28L335 29L334 28z"/>
<path style="fill:#c4b248; stroke:none;" d="M284 29L285 30L284 29z"/>
<path style="fill:#b99155; stroke:none;" d="M300 29L301 30L300 29z"/>
<path style="fill:#978d4a; stroke:none;" d="M320 29L321 30L320 29z"/>
<path style="fill:#df918c; stroke:none;" d="M501 29L502 30L501 29z"/>
<path style="fill:#959c53; stroke:none;" d="M283 30L284 31L283 30z"/>
<path style="fill:#a18a5e; stroke:none;" d="M297 30L298 31L297 30z"/>
<path style="fill:#84875a; stroke:none;" d="M323 30L324 31L323 30z"/>
<path style="fill:#cba941; stroke:none;" d="M337 30L338 31L337 30z"/>
<path style="fill:#718961; stroke:none;" d="M282 31L283 32L282 31z"/>
<path style="fill:#ba9950; stroke:none;" d="M295 31L296 32L295 31z"/>
<path style="fill:#9a8e55; stroke:none;" d="M325 31L326 32L325 31z"/>
<path style="fill:#9d9f48; stroke:none;" d="M338 31L339 32L338 31z"/>
<path style="fill:#fbb74c; stroke:none;" d="M536 34C538.491 35.0772 541.542 35.0458 543.772 36.7423C551.997 43.0013 539.53 54.0961 534.179 44.9159C533.268 43.3536 533.194 41.7402 533 40C529.368 44.3847 528.373 49.9081 525.507 54.7145C523.999 57.2434 521.128 59.8617 521.12 63C521.114 65.7433 523.309 68.0882 525 70C527.247 66.3285 529.638 59.386 533.681 57.4522C540.022 54.419 546.038 58.539 551.581 51.8951C555.7 46.9583 557.363 36.3258 550 34L551 31C545.469 31.0036 540.927 31.3112 536 34z"/>
<path style="fill:#e49e5d; stroke:none;" d="M551 31C550.425 33.3963 550.525 33.487 553 34C552.309 32.6115 552.016 32.1394 551 31z"/>
<path style="fill:#c2742e; stroke:none;" d="M72 32C79.4089 35.1089 90.9754 33 99 33C91.5911 29.8911 80.0246 32 72 32z"/>
<path style="fill:#627c64; stroke:none;" d="M281 32L282 33L281 32z"/>
<path style="fill:#a48947; stroke:none;" d="M327 32L328 33L327 32z"/>
<path style="fill:#9b9c57; stroke:none;" d="M339 32L340 33L339 32z"/>
<path style="fill:#ddd5b5; stroke:none;" d="M70 33C77.8884 36.3101 90.4492 34 99 34C91.1116 30.6899 78.5508 33 70 33z"/>
<path style="fill:#b9a270; stroke:none;" d="M99 33C102.699 34.552 107.017 34 111 34L132 34C128.301 32.448 123.983 33 120 33L99 33z"/>
<path style="fill:#5d7960; stroke:none;" d="M280 33L281 34L280 33z"/>
<path style="fill:#828d55; stroke:none;" d="M291 33L292 34L291 33z"/>
<path style="fill:#5d7d64; stroke:none;" d="M329 33L330 34L329 33z"/>
<path style="fill:#a99c47; stroke:none;" d="M340 33L341 34L340 33z"/>
<path style="fill:#ddf1f8; stroke:none;" d="M69 34L69 73L81 73C81.0947 60.5597 83.6508 42.0109 99 40L99 34L69 34z"/>
<path style="fill:#afe5f1; stroke:none;" d="M99 34L99 40C99.7789 38.231 99.9124 36.9641 100 35L131 35C127.301 33.448 122.983 34 119 34L99 34z"/>
<path style="fill:#b1dce3; stroke:none;" d="M100 35C100.252 42.5804 107.189 42.9807 110.772 49.0038C113.58 53.7235 114.129 59.7085 115.2 65C115.647 67.2081 115.825 70.4536 117.738 71.9722C120.977 74.543 129.053 73 133 73L133 34C122.268 35.9922 110.886 35 100 35z"/>
<path style="fill:#678859; stroke:none;" d="M279 34L280 35L279 34z"/>
<path style="fill:#a08e52; stroke:none;" d="M330 34L331 35L330 34z"/>
<path style="fill:#ada650; stroke:none;" d="M341 34L342 35L341 34z"/>
<path style="fill:#fbb74c; stroke:none;" d="M479 34C475.201 41.8953 477.232 52.5576 486.001 56.2971C490.722 58.3102 495.29 57.3204 500 56C501.799 62.2343 505.983 71.0448 510.634 75.6667C516.033 81.0316 517.724 72.8741 518 69C510.154 66.5524 510.186 56.4103 504.319 51.6034C500.901 48.8028 495.94 50.681 492 49.2724C484.463 46.5777 482.501 40.2294 479 34z"/>
<path style="fill:#954381; stroke:none;" d="M554 34C554.534 37.6494 555.948 41.3002 555.017 45C552.45 55.2008 542.026 58.8362 533 56C530.436 59.8868 526.05 65.2393 525.632 70C525.195 74.9754 530.221 80.8876 532.579 85C537.353 93.3275 542.163 101.632 546.861 110C548.961 113.74 552.266 117.687 553.015 122C553.783 126.43 549.388 134.67 544.61 129.793C537.938 122.985 533.431 111.283 528.719 103C524.771 96.0593 520.378 89.2342 517 82L515 82C510.648 91.3221 504.948 100.068 499.85 109C495.215 117.12 491.075 125.854 485 133C489.833 140.727 496.984 146.858 503.536 153.116C506.157 155.619 508.512 159.09 512.015 160.397C515.307 161.626 519.547 161 523 161L545 161L620 161L620 119C620 113.513 621.497 105.398 619.412 100.259C616.21 92.3679 605.429 85.7096 599.536 79.7407C584.665 64.6777 570.464 47.2755 554 34z"/>
<path style="fill:#d8cba6; stroke:none;" d="M68 35L68 73C71.105 65.6005 69 54.0073 69 46C69 42.2975 69.4412 38.4346 68 35z"/>
<path style="fill:#baa170; stroke:none;" d="M133 35L133 73C136.105 65.6005 134 54.0074 134 46C134 42.2976 134.441 38.4345 133 35z"/>
<path style="fill:#87904f; stroke:none;" d="M278 35L279 36L278 35z"/>
<path style="fill:#cead45; stroke:none;" d="M342 35L343 36L342 35z"/>
<path style="fill:#b54f98; stroke:none;" d="M489.109 36.0316C481.142 40.3934 488.164 52.3096 495.852 47.8202C502.993 43.6501 496.675 31.8891 489.109 36.0316z"/>
<path style="fill:#954381; stroke:none;" d="M537.059 36.0324C528.768 40.4032 535.785 52.6528 543.772 47.8202C550.695 43.6313 544.259 32.2366 537.059 36.0324z"/>
<path style="fill:#afa740; stroke:none;" d="M277 36L278 37L277 36z"/>
<path style="fill:#7a855a; stroke:none;" d="M287 36L288 37L287 36z"/>
<path style="fill:#c7736c; stroke:none;" d="M535 36L536 37L535 36z"/>
<path style="fill:#c87872; stroke:none;" d="M544 36L545 37L544 36z"/>
<path style="fill:#258ec8; stroke:none;" d="M155 37C155.472 38.4161 155.814 38.8137 157 40L153 39C150.97 45.868 152 53.8692 152 61L152 103C152 113.691 149.644 125.561 152 136C150.488 134.347 149.819 133.106 149 131C139.408 137.611 129.32 136 118 136L62 136C64.7283 142.784 71.9283 148.821 77.0147 153.999C79.3448 156.371 81.7988 159.216 85 160.397C88.8426 161.813 93.9664 161 98 161L123 161C151.031 161 179.043 161.423 207 162C205.305 154.88 206 147.281 206 140L206 105C206 98.9002 207.369 90.8481 205.436 85.0147C203.615 79.5199 197.782 75.4669 193.883 71.4861C186.635 64.0843 179.564 56.0608 171.816 49.1883C169.423 47.0663 166.422 46.0231 164 44C162.203 44 162.479 44.0143 161 45L161 40C158.99 38.7386 157.222 37.8102 155 37z"/>
<path style="fill:#849162; stroke:none;" d="M286 37L287 38L286 37z"/>
<path style="fill:#bb6c62; stroke:none;" d="M534 37L535 38L534 37z"/>
<path style="fill:#c47e5e; stroke:none;" d="M545 37L546 38L545 37z"/>
<path style="fill:#86885d; stroke:none;" d="M285 38L286 39L285 38z"/>
<path style="fill:#8f8d56; stroke:none;" d="M344 38L345 39L344 38z"/>
<path style="fill:#7f885d; stroke:none;" d="M275 39L276 40L275 39z"/>
<path style="fill:#828c5f; stroke:none;" d="M284 39L285 40L284 39z"/>
<path style="fill:#cba345; stroke:none;" d="M345 39L346 40L345 39z"/>
<path style="fill:#ca742e; stroke:none;" d="M67 40L67 72C68.3283 68.8344 67.9998 65.4186 68 62C68.0004 55.3144 69.599 46.1936 67 40z"/>
<path style="fill:#f5ffff; stroke:none;" d="M94 40C96.0521 40.8742 97.7472 40.9528 100 41C97.9479 40.1258 96.2528 40.0472 94 40z"/>
<path style="fill:#994b25; stroke:none;" d="M134 40L134 63C134 66.5164 133.214 70.5652 136 73C133.532 62.6329 138.069 49.696 134 40z"/>
<path style="fill:#7d6a69; stroke:none;" d="M145 40L145 133C147.599 126.806 146 117.686 146 111L146 64C146 56.7844 147.802 46.6777 145 40z"/>
<path style="fill:#687f6e; stroke:none;" d="M283 40L284 41L283 40z"/>
<path style="fill:#e19787; stroke:none;" d="M499 40L499 44C499.71 42.2404 499.71 41.7596 499 40z"/>
<path style="fill:#b86c76; stroke:none;" d="M555 40L555 44C555.71 42.2404 555.71 41.7596 555 40z"/>
<path style="fill:#719092; stroke:none;" d="M94 41L95 42L94 41z"/>
<path style="fill:#2a5461; stroke:none;" d="M92 44C94.442 44.1095 96.6228 44.428 99 45L99 41C95.9517 41.2771 93.88 41.5257 92 44z"/>
<path style="fill:#152024; stroke:none;" d="M99 41C99.5131 47.5137 105.55 51.7229 107.59 58C110.401 66.6482 110 77.9113 110 87C113.809 84.8873 117.477 82.5616 121 80C112.865 67.2357 116.647 45.2424 99 41z"/>
<path style="fill:#627787; stroke:none;" d="M101 41L102 42L101 41z"/>
<path style="fill:#938052; stroke:none;" d="M346 41L347 42L346 41z"/>
<path style="fill:#aec2ce; stroke:none;" d="M91 42L92 43L91 42z"/>
<path style="fill:#667c84; stroke:none;" d="M104 42L105 43L104 42z"/>
<path style="fill:#afa04d; stroke:none;" d="M273 42L274 43L273 42z"/>
<path style="fill:#978b50; stroke:none;" d="M338 42L339 43L338 42z"/>
<path style="fill:#f8a82d; stroke:none;" d="M347 42C353.277 57.3048 353 71.7029 353 88C353 93.0187 351.572 100.949 358 102C356.018 110.325 357.001 119.482 357 128C357 131.64 357.756 136.653 355.258 139.682C352.449 143.088 343.542 143.291 341.603 138.852C340.364 136.014 341 132.022 341 129C341 121.49 337.715 104.256 345 100L345 87C340.957 90.4941 337.541 94.5123 333 97.4521C320.618 105.469 305.275 106.989 292 100.179C285.916 97.0582 281.511 91.8786 276 88C276 91.1467 275.527 94.7621 276.313 97.8302C277.074 100.796 279.382 102.878 279.853 106.004C280.818 112.418 280 119.518 280 126C280 130.224 281.33 137.323 277.682 140.397C274.927 142.718 270.342 142 267 142C270.597 148.024 279.238 157.815 286.005 160.272C294.653 163.413 307.846 161 317 161L378 161C388.669 161 400.585 159.52 411 162L411 102C405.505 99.1279 402.145 93.823 397.626 89.7701C385.083 78.5205 373.937 65.7383 361.536 54.2508C356.875 49.9326 352.868 44.6371 347 42z"/>
<path style="fill:#174b61; stroke:none;" d="M87 48C90.7453 46.1174 93.7937 45.1012 98 45C93.3689 42.9261 89.3953 43.2934 87 48z"/>
<path style="fill:#82a1a6; stroke:none;" d="M106 43L107 44L106 43z"/>
<path style="fill:#988f5d; stroke:none;" d="M281 43L282 44L281 43z"/>
<path style="fill:#6b8569; stroke:none;" d="M347 43L348 44L347 43z"/>
<path style="fill:#50696d; stroke:none;" d="M107 44L108 45L107 44z"/>
<path style="fill:#a49f4b; stroke:none;" d="M272 44L273 45L272 44z"/>
<path style="fill:#8a956e; stroke:none;" d="M91 45L92 46L91 45z"/>
<path style="fill:#ffe382; stroke:none;" d="M94 72C91.9929 74.73 88.5885 77.0124 87.1829 80.0895C83.1813 88.8495 92.2804 92.5945 99 94L99 57C99 53.2882 100.416 45.5197 94.9414 45.2569C89.568 44.9991 85.8317 50.1958 85.1898 55C84.2297 62.1864 87.1693 69.2266 94 72z"/>
<path style="fill:#a7a46c; stroke:none;" d="M98 45L99 46L98 45z"/>
<path style="fill:#415f62; stroke:none;" d="M108 45L109 46L108 45z"/>
<path style="fill:#838e62; stroke:none;" d="M340 45L341 46L340 45z"/>
<path style="fill:#7b865c; stroke:none;" d="M348 45L349 46L348 45z"/>
<path style="fill:#6e7d5d; stroke:none;" d="M89 46L90 47L89 46z"/>
<path style="fill:#fdd342; stroke:none;" d="M99 46C101.858 61.3918 100 78.3682 100 94C110.119 92.4374 108.205 84.7759 108.015 77C107.745 66.0102 109.693 52.7773 99 46z"/>
<path style="fill:#605229; stroke:none;" d="M100 46L101 47L100 46z"/>
<path style="fill:#68848a; stroke:none;" d="M109 46L110 47L109 46z"/>
<path style="fill:#bdb046; stroke:none;" d="M271 46L272 47L271 46z"/>
<path style="fill:#607a5f; stroke:none;" d="M279 46L280 47L279 46z"/>
<path style="fill:#c07467; stroke:none;" d="M554.333 46.6667C554.278 46.7223 554.222 47.7778 554.667 47.3333C554.722 47.2779 554.778 46.2222 554.333 46.6667z"/>
<path style="fill:#4c6c77; stroke:none;" d="M86 47L87 48L86 47z"/>
<path style="fill:#a29f61; stroke:none;" d="M88 47L89 48L88 47z"/>
<path style="fill:#ac994a; stroke:none;" d="M101 47L102 48L101 47z"/>
<path style="fill:#658352; stroke:none;" d="M271 47L272 48L271 47z"/>
<path style="fill:#968745; stroke:none;" d="M341 47L342 48L341 47z"/>
<path style="fill:#b08f51; stroke:none;" d="M349 47L350 48L349 47z"/>
<path style="fill:#2f5051; stroke:none;" d="M86 48L85 52C86.1455 50.3596 86.393 49.924 86 48z"/>
<path style="fill:#958e5c; stroke:none;" d="M87 48L88 49L87 48z"/>
<path style="fill:#ffd95e; stroke:none;" d="M99 48L99 94C100.661 90.0414 100 85.2603 100 81L100 60C100 56.0172 100.552 51.6986 99 48z"/>
<path style="fill:#62715b; stroke:none;" d="M278 48L279 49L278 48z"/>
<path style="fill:#d89377; stroke:none;" d="M495 48L496 49L495 48z"/>
<path style="fill:#ab9746; stroke:none;" d="M103 49L104 50L103 49z"/>
<path style="fill:#8eb3b9; stroke:none;" d="M111 49L112 50L111 49z"/>
<path style="fill:#b5a143; stroke:none;" d="M270 49L271 50L270 49z"/>
<path style="fill:#708661; stroke:none;" d="M342 49L343 50L342 49z"/>
<path style="fill:#c3756e; stroke:none;" d="M553 49L554 50L553 49z"/>
<path style="fill:#6d5a2d; stroke:none;" d="M104 50L105 51L104 50z"/>
<path style="fill:#3b4e4e; stroke:none;" d="M111 50L112 51L111 50z"/>
<path style="fill:#56776a; stroke:none;" d="M270 50L271 51L270 50z"/>
<path style="fill:#a3905b; stroke:none;" d="M350 50L351 51L350 50z"/>
<path style="fill:#628489; stroke:none;" d="M84 51L85 52L84 51z"/>
<path style="fill:#778463; stroke:none;" d="M277 51L278 52L277 51z"/>
<path style="fill:#043449; stroke:none;" d="M84 52L84 55C84.6961 53.4463 84.6961 53.5537 84 52z"/>
<path style="fill:#b6b16e; stroke:none;" d="M85 52L86 53L85 52z"/>
<path style="fill:#88723b; stroke:none;" d="M105 52L106 53L105 52z"/>
<path style="fill:#7c9ba4; stroke:none;" d="M112 52L113 53L112 52z"/>
<path style="fill:#89874e; stroke:none;" d="M343 52L344 53L343 52z"/>
<path style="fill:#354e56; stroke:none;" d="M112 53L113 54L112 53z"/>
<path style="fill:#97955d; stroke:none;" d="M269 53L270 54L269 53z"/>
<path style="fill:#8ba29a; stroke:none;" d="M83 54L84 55L83 54z"/>
<path style="fill:#5f5133; stroke:none;" d="M106 54L107 55L106 54z"/>
<path style="fill:#728467; stroke:none;" d="M351.333 54.6667C351.278 54.7222 351.222 55.7778 351.667 55.3333C351.722 55.2778 351.778 54.2222 351.333 54.6667z"/>
<path style="fill:#2a5661; stroke:none;" d="M83 55C82.6569 59.3471 81.6556 63.6407 81.4406 68C81.2622 71.6165 81.7439 75.4828 79.6968 78.7253C76.9354 83.099 71.2198 83.3986 69.5139 89.0039C66.6092 98.5478 69 112.037 69 122L99 122L99 114C94.5456 113.663 92.2698 112.377 91 108L99 108L99 99C93.5697 97.7431 89.0081 95.3271 84 93L83 98C71.2702 88.2285 90.3989 80.5358 93 72C87.2212 67.829 84.2587 62.1754 85 55L83 55z"/>
<path style="fill:#baa243; stroke:none;" d="M106 55L107 56L106 55z"/>
<path style="fill:#d28662; stroke:none;" d="M547 55L548 56L547 55z"/>
<path style="fill:#5f776a; stroke:none;" d="M84 56L84 59C84.6961 57.4463 84.6961 57.5537 84 56z"/>
<path style="fill:#506970; stroke:none;" d="M113.333 56.6667C113.278 56.7223 113.222 57.7777 113.667 57.3333C113.722 57.2779 113.778 56.2222 113.333 56.6667z"/>
<path style="fill:#e5b733; stroke:none;" d="M268.333 56.6667C268.278 56.7222 268.222 57.7778 268.667 57.3333C268.722 57.2778 268.778 56.2222 268.333 56.6667z"/>
<path style="fill:#0b6271; stroke:none;" d="M269 56L269 96C270.769 91.7839 269.998 86.5363 270 82C270.003 73.7701 272.272 63.7969 269 56z"/>
<path style="fill:#a69250; stroke:none;" d="M344.333 56.6667C344.278 56.7222 344.222 57.7778 344.667 57.3333C344.722 57.2778 344.778 56.2222 344.333 56.6667z"/>
<path style="fill:#006978; stroke:none;" d="M345 56L345 66C346.346 62.7929 346.346 59.207 345 56z"/>
<path style="fill:#e3977a; stroke:none;" d="M498.667 56.3333C498.222 56.7777 499.278 56.7223 499.333 56.6667C499.778 56.2222 498.722 56.2778 498.667 56.3333z"/>
<path style="fill:#f0a179; stroke:none;" d="M489.667 57.3333C489.222 57.7777 490.278 57.7222 490.333 57.6667C490.778 57.2222 489.722 57.2779 489.667 57.3333z"/>
<path style="fill:#d47d7f; stroke:none;" d="M494.667 57.3333C494.222 57.7777 495.278 57.7222 495.333 57.6667C495.778 57.2222 494.722 57.2778 494.667 57.3333z"/>
<path style="fill:#d0866c; stroke:none;" d="M537 57C538.769 57.7789 540.036 57.9124 542 58C540.231 57.2211 538.964 57.0876 537 57z"/>
<path style="fill:#99883f; stroke:none;" d="M107.333 58.6667C107.278 58.7223 107.222 59.7777 107.667 59.3333C107.722 59.2779 107.778 58.2222 107.333 58.6667z"/>
<path style="fill:#b5a347; stroke:none;" d="M268 58L268 61C268.696 59.4463 268.696 59.5537 268 58z"/>
<path style="fill:#cd806c; stroke:none;" d="M531 58L532 59L531 58z"/>
<path style="fill:#f8ffff; stroke:none;" d="M81 59L81 64C81.8299 61.9695 81.8299 61.0305 81 59z"/>
<path style="fill:#79879e; stroke:none;" d="M82 59L83 60L82 59z"/>
<path style="fill:#00062d; stroke:none;" d="M108 59L108 64C108.83 61.9695 108.83 61.0305 108 59z"/>
<path style="fill:#50796d; stroke:none;" d="M275 60L275 64C275.71 62.2405 275.71 61.7595 275 60z"/>
<path style="fill:#d19f40; stroke:none;" d="M352 60L352 100C355.206 92.3606 353 80.2708 353 72C353 68.0172 353.552 63.6987 352 60z"/>
<path style="fill:#7b969d; stroke:none;" d="M114 61L115 62L114 61z"/>
<path style="fill:#547e6b; stroke:none;" d="M268 61L268 66C268.83 63.9695 268.83 63.0305 268 61z"/>
<path style="fill:#bab77a; stroke:none;" d="M85 62L86 63L85 62z"/>
<path style="fill:#283f47; stroke:none;" d="M114.333 62.6667C114.278 62.7223 114.222 63.7777 114.667 63.3333C114.722 63.2779 114.778 62.2221 114.333 62.6667z"/>
<path style="fill:#ffca04; stroke:none;" d="M267 63L267 96C268.328 92.8343 268 89.4187 268 86C268 79.0493 269.701 69.4359 267 63z"/>
<path style="fill:#046272; stroke:none;" d="M351 64L351 99L346 99L346 88C344.448 91.6975 345 96.0169 345 100L352 100L352 77C352 72.7397 352.661 67.9586 351 64z"/>
<path style="fill:#67858d; stroke:none;" d="M81.3333 65.6667C81.2777 65.7223 81.2223 66.7777 81.6667 66.3333C81.7222 66.2779 81.7778 65.2222 81.3333 65.6667z"/>
<path style="fill:#958f6b; stroke:none;" d="M86 65L87 66L86 65z"/>
<path style="fill:#ca7e70; stroke:none;" d="M504 65L505 66L504 65z"/>
<path style="fill:#c37a68; stroke:none;" d="M527 65L528 66L527 65z"/>
<path style="fill:#5b7378; stroke:none;" d="M115.333 66.6667C115.278 66.7223 115.222 67.7777 115.667 67.3333C115.722 67.2779 115.778 66.2221 115.333 66.6667z"/>
<path style="fill:#959455; stroke:none;" d="M268 66L268 100C270.802 93.3226 269 83.2153 269 76C269 72.5814 269.328 69.1656 268 66z"/>
<path style="fill:#727865; stroke:none;" d="M87 67L88 68L87 67z"/>
<path style="fill:#4d5138; stroke:none;" d="M108 67L108 72C108.83 69.9695 108.83 69.0305 108 67z"/>
<path style="fill:#7a8765; stroke:none;" d="M344.333 67.6667C344.278 67.7221 344.222 68.7778 344.667 68.3333C344.722 68.2778 344.778 67.2222 344.333 67.6667z"/>
<path style="fill:#a9b063; stroke:none;" d="M88 68L89 69L88 68z"/>
<path style="fill:#a68a44; stroke:none;" d="M276 68L277 69L276 68z"/>
<path style="fill:#5c7256; stroke:none;" d="M276 69L277 70L276 69z"/>
<path style="fill:#124653; stroke:none;" d="M81 70L81 74C81.7102 72.2405 81.7102 71.7595 81 70z"/>
<path style="fill:#b3b46f; stroke:none;" d="M90 70L91 71L90 70z"/>
<path style="fill:#beb078; stroke:none;" d="M507 70L508 71L507 70z"/>
<path style="fill:#787c58; stroke:none;" d="M91 71L92 72L91 71z"/>
<path style="fill:#8aaaaf; stroke:none;" d="M116 71L117 72L116 71z"/>
<path style="fill:#055658; stroke:none;" d="M276 71C276 81.6157 275.268 90.4172 286 96C285.923 86.8374 281.039 78.4914 276 71z"/>
<path style="fill:#9fadae; stroke:none;" d="M507 71C498.869 84.9173 490.699 98.9104 482.862 113C480.25 117.695 476.288 125.297 482 129C487.306 114.98 497.047 101.987 504.46 88.9853C507.76 83.1966 512.452 76.824 507 71z"/>
<path style="fill:#b4be6a; stroke:none;" d="M93.3333 72.6667C93.2779 72.7222 93.2222 73.7778 93.6667 73.3333C93.7223 73.2777 93.7777 72.2223 93.3333 72.6667z"/>
<path style="fill:#8d7938; stroke:none;" d="M108 72L108 80C109.161 77.2301 109.161 74.7699 108 72z"/>
<path style="fill:#000727; stroke:none;" d="M109 72L109 88C110.812 83.6811 110.812 76.3189 109 72z"/>
<path style="fill:#57818a; stroke:none;" d="M116 72L117 73L116 72z"/>
<path style="fill:#998d52; stroke:none;" d="M343 72L344 73L343 72z"/>
<path style="fill:#c0cfcc; stroke:none;" d="M520 74C523.347 83.1953 529.36 91.5968 534.29 100C539.935 109.623 545.173 119.479 551 129C555.341 123.269 551.085 116.403 547.999 111C540.671 98.1693 531.852 85.5798 526 72L520 74z"/>
<path style="fill:#e1a62e; stroke:none;" d="M68 73L68 90C69.8826 85.5135 69.8826 77.4865 68 73z"/>
<path style="fill:#fdd440; stroke:none;" d="M69 73L69 88C72.5056 84.8006 75.2238 81.9638 80 81L80 74C76.2374 73.9896 72.7005 73.687 69 73z"/>
<path style="fill:#ffce26; stroke:none;" d="M71 73C73.8897 74.2129 76.8741 73.9983 80 74C77.1103 72.7871 74.1259 73.0017 71 73z"/>
<path style="fill:#ab8d3a; stroke:none;" d="M80.3333 73.6667C80.2779 73.7222 80.2222 74.7778 80.6667 74.3333C80.7223 74.2777 80.7778 73.2223 80.3333 73.6667z"/>
<path style="fill:#edb50b; stroke:none;" d="M117 73C118.699 78.9118 127.135 86.3492 133 88L133 73L117 73z"/>
<path style="fill:#bc782d; stroke:none;" d="M133 73L133 91C134.952 86.349 134.952 77.651 133 73z"/>
<path style="fill:#4d6547; stroke:none;" d="M277 73L278 74L277 73z"/>
<path style="fill:#566549; stroke:none;" d="M80 75L80 78C80.6961 76.4463 80.6961 76.5537 80 75z"/>
<path style="fill:#9d8c4f; stroke:none;" d="M278 75L279 76L278 75z"/>
<path style="fill:#848760; stroke:none;" d="M342 75L343 76L342 75z"/>
<path style="fill:#adbbbc; stroke:none;" d="M510 76C506.447 90.0612 494.99 103.127 488.396 116C486.627 119.453 480.813 125.714 482.367 129.833C485.08 137.02 491.856 123.991 493 122C500.265 109.361 510.599 95.9085 515 82L517 82C521.415 95.9508 531.904 109.306 539.15 122C542.382 127.66 544.97 134.842 552 130C545.119 117.072 537.196 104.668 529.876 92C527.381 87.6823 525.008 79.5111 520.61 76.8164C517.884 75.1461 513.295 77.0594 510 76z"/>
<path style="fill:#c8b976; stroke:none;" d="M90 76L91 77L90 76z"/>
<path style="fill:#9e904f; stroke:none;" d="M341 77L342 78L341 77z"/>
<path style="fill:#b286aa; stroke:none;" d="M528 77L529 78L528 77z"/>
<path style="fill:#c18129; stroke:none;" d="M121.333 79.6667C121.278 79.7222 121.222 80.7778 121.667 80.3333C121.722 80.2777 121.778 79.2223 121.333 79.6667z"/>
<path style="fill:#a8914c; stroke:none;" d="M340 79L341 80L340 79z"/>
<path style="fill:#dbb842; stroke:none;" d="M108 80L108 83C108.696 81.4463 108.696 81.5537 108 80z"/>
<path style="fill:#473130; stroke:none;" d="M120 80L121 81L120 80z"/>
<path style="fill:#f59b34; stroke:none;" d="M99 104C104.903 102.268 107.624 96.1863 112.015 92.1736C116.258 88.2955 122.315 86.1694 125 81L124 80C113.5 82.6471 100.507 92.7177 99 104z"/>
<path style="fill:#a29338; stroke:none;" d="M76 81L77 82L76 81z"/>
<path style="fill:#f49b37; stroke:none;" d="M85 81C80.4587 86.0946 78.8017 90.2402 80 97L84 96C83.7557 90.8652 88.0509 85.2812 85 81z"/>
<path style="fill:#727f47; stroke:none;" d="M281 81L282 82L281 81z"/>
<path style="fill:#67836f; stroke:none;" d="M339 81L340 82L339 81z"/>
<path style="fill:#7d6f49; stroke:none;" d="M74 82L75 83L74 82z"/>
<path style="fill:#b88b54; stroke:none;" d="M83 82L84 83L83 82z"/>
<path style="fill:#b77735; stroke:none;" d="M117 82L118 83L117 82z"/>
<path style="fill:#ae9242; stroke:none;" d="M338 82L339 83L338 82z"/>
<path style="fill:#b88853; stroke:none;" d="M82 83L83 84L82 83z"/>
<path style="fill:#8a5638; stroke:none;" d="M115 83L116 84L115 83z"/>
<path style="fill:#8d6b1d; stroke:none;" d="M124.667 83.3333C124.222 83.7778 125.278 83.7222 125.333 83.6667C125.778 83.2222 124.722 83.2778 124.667 83.3333z"/>
<path style="fill:#887c5b; stroke:none;" d="M81 84L82 85L81 84z"/>
<path style="fill:#4d4223; stroke:none;" d="M123 84L124 85L123 84z"/>
<path style="fill:#131f24; stroke:none;" d="M100 104L100 108C108.853 108.276 110.248 103.932 116.09 98.0903C119.822 94.3587 124.25 91.2571 129 89C126.343 83.7795 122.568 84.4624 118 87.3881C111.036 91.8481 107.036 100.208 100 104z"/>
<path style="fill:#7c6235; stroke:none;" d="M126 84L127 85L126 84z"/>
<path style="fill:#0988df; stroke:none;" d="M206 84L206 161C208.395 155.293 207 147.154 207 141L207 102C207 96.3809 208.189 89.2165 206 84z"/>
<path style="fill:#ae83a7; stroke:none;" d="M532 84L533 85L532 84z"/>
<path style="fill:#65482e; stroke:none;" d="M112 85L113 86L112 85z"/>
<path style="fill:#5d5f2e; stroke:none;" d="M127 85L128 86L127 85z"/>
<path style="fill:#54725a; stroke:none;" d="M284 85L285 86L284 85z"/>
<path style="fill:#697b5b; stroke:none;" d="M336 85L337 86L336 85z"/>
<path style="fill:#1c6668; stroke:none;" d="M345 86C345.811 90.3693 346 94.5638 346 99L351 99C351 96.1317 352.438 86.6252 350 85C347.898 83.5988 346.924 86.0763 346 87L345 86z"/>
<path style="fill:#54543c; stroke:none;" d="M70 86L71 87L70 86z"/>
<path style="fill:#bd8051; stroke:none;" d="M80 86L81 87L80 86z"/>
<path style="fill:#976c41; stroke:none;" d="M111 86L112 87L111 86z"/>
<path style="fill:#6a472e; stroke:none;" d="M119 86L120 87L119 86z"/>
<path style="fill:#734d2a; stroke:none;" d="M128 86L129 87L128 86z"/>
<path style="fill:#4b7258; stroke:none;" d="M275 86L275 100C276.601 96.1845 277.072 89.5843 275 86z"/>
<path style="fill:#83814b; stroke:none;" d="M285 86L286 87L285 86z"/>
<path style="fill:#858558; stroke:none;" d="M335 86L336 87L335 86z"/>
<path style="fill:#828550; stroke:none;" d="M344 86L345 87L344 86z"/>
<path style="fill:#bb9db3; stroke:none;" d="M533 86L534 87L533 86z"/>
<path style="fill:#c57b40; stroke:none;" d="M85 87C82.9488 96.2122 94.53 97.4418 101 99L104 94C96.0646 93.9772 91.5133 91.2502 85 87z"/>
<path style="fill:#b48945; stroke:none;" d="M110 87L111 88L110 87z"/>
<path style="fill:#a36d32; stroke:none;" d="M117 87L118 88L117 87z"/>
<path style="fill:#6a4939; stroke:none;" d="M129.333 87.6667C129.278 87.7222 129.222 88.7778 129.667 88.3333C129.722 88.2778 129.778 87.2222 129.333 87.6667z"/>
<path style="fill:#b39b4e; stroke:none;" d="M286 87L287 88L286 87z"/>
<path style="fill:#858557; stroke:none;" d="M334 87L335 88L334 87z"/>
<path style="fill:#b2854b; stroke:none;" d="M79.3333 88.6667C79.2779 88.7221 79.2222 89.7778 79.6667 89.3333C79.7223 89.2777 79.7777 88.2223 79.3333 88.6667z"/>
<path style="fill:#543b2c; stroke:none;" d="M116 88L117 89L116 88z"/>
<path style="fill:#f59b35; stroke:none;" d="M108 110C114.745 109.707 118.992 101.387 124 97.3789C127.782 94.3513 132.118 93.1407 133 88C122.846 89.8111 110.628 99.8951 108 110z"/>
<path style="fill:#4a7458; stroke:none;" d="M277 88L278 89L277 88z"/>
<path style="fill:#a48b52; stroke:none;" d="M287 88L288 89L287 88z"/>
<path style="fill:#65805f; stroke:none;" d="M333 88L334 89L333 88z"/>
<path style="fill:#7a5330; stroke:none;" d="M127 89L128 90L127 89z"/>
<path style="fill:#878662; stroke:none;" d="M288 89L289 90L288 89z"/>
<path style="fill:#a69a4f; stroke:none;" d="M342 89L343 90L342 89z"/>
<path style="fill:#9b753a; stroke:none;" d="M113 90L114 91L113 90z"/>
<path style="fill:#544024; stroke:none;" d="M125 90L126 91L125 90z"/>
<path style="fill:#948458; stroke:none;" d="M341 90L342 91L341 90z"/>
<path style="fill:#7f723f; stroke:none;" d="M68 91L68 120C69.3283 116.834 68.9998 113.419 69 110C69.0004 104.113 70.2921 96.4622 68 91z"/>
<path style="fill:#73512a; stroke:none;" d="M112 91L113 92L112 91z"/>
<path style="fill:#865d30; stroke:none;" d="M133 91L133 120C135.292 114.538 134 106.887 134 101C134 97.5814 134.328 94.1656 133 91z"/>
<path style="fill:#a4914a; stroke:none;" d="M291 91L292 92L291 91z"/>
<path style="fill:#738862; stroke:none;" d="M329 91L330 92L329 91z"/>
<path style="fill:#868766; stroke:none;" d="M340 91L341 92L340 91z"/>
<path style="fill:#b68aae; stroke:none;" d="M536 91L537 92L536 91z"/>
<path style="fill:#ce8e40; stroke:none;" d="M83.3333 92.6667C83.2778 92.7222 83.2222 93.7778 83.6667 93.3333C83.7223 93.2777 83.7777 92.2223 83.3333 92.6667z"/>
<path style="fill:#786653; stroke:none;" d="M84 92L85 93L84 92z"/>
<path style="fill:#604933; stroke:none;" d="M111 92L112 93L111 92z"/>
<path style="fill:#715039; stroke:none;" d="M122 92L123 93L122 92z"/>
<path style="fill:#9e783f; stroke:none;" d="M131 92L132 93L131 92z"/>
<path style="fill:#091b21; stroke:none;" d="M132 92C130.402 93.481 129.892 94.0615 129 96L132 95L131.999 112C131.983 114.418 132.268 117.526 130.397 119.397C128.326 121.467 124.659 120.995 122 121L100 121C106.434 123.7 116.051 122.003 123 122C125.469 121.999 129.311 122.624 131.397 120.972C133.361 119.417 132.984 116.209 132.999 114C133.045 107.343 134.587 98.1646 132 92z"/>
<path style="fill:#7c8667; stroke:none;" d="M339 92L340 93L339 92z"/>
<path style="fill:#77665e; stroke:none;" d="M85 93L86 94L85 93z"/>
<path style="fill:#edbf5f; stroke:none;" d="M95.6667 93.3333C95.2222 93.7778 96.2778 93.7222 96.3333 93.6667C96.7778 93.2222 95.7222 93.2778 95.6667 93.3333z"/>
<path style="fill:#554628; stroke:none;" d="M110 93L111 94L110 93z"/>
<path style="fill:#b77b29; stroke:none;" d="M121 93L122 94L121 93z"/>
<path style="fill:#9e7135; stroke:none;" d="M129 93L130 94L129 93z"/>
<path style="fill:#608062; stroke:none;" d="M294 93L295 94L294 93z"/>
<path style="fill:#ba8f50; stroke:none;" d="M325 93L326 94L325 93z"/>
<path style="fill:#837f5c; stroke:none;" d="M338 93L339 94L338 93z"/>
<path style="fill:#c59046; stroke:none;" d="M79.3333 94.6667C79.2779 94.7222 79.2222 95.7778 79.6667 95.3333C79.7223 95.2777 79.7777 94.2223 79.3333 94.6667z"/>
<path style="fill:#bc8755; stroke:none;" d="M87 94C88.2227 95.1951 88.42 95.3164 90 96C88.7772 94.8048 88.5801 94.6836 87 94z"/>
<path style="fill:#5b4b20; stroke:none;" d="M109 94L110 95L109 94z"/>
<path style="fill:#162127; stroke:none;" d="M128 94C123.107 97.8838 117.376 101.466 114.164 107C113.037 108.94 113.588 115.796 111.667 116.412C110.033 116.936 108.165 115.084 106.832 114.433C104.587 113.336 102.451 113.128 100 113L100 121L123 121C125.42 120.995 129.255 121.564 130.972 119.397C132.468 117.508 131.995 114.236 132 112L132 95C129.962 95.1798 129.552 95.1639 128 94z"/>
<path style="fill:#67775e; stroke:none;" d="M296 94L297 95L296 94z"/>
<path style="fill:#b39656; stroke:none;" d="M297 94L298 95L297 94z"/>
<path style="fill:#b08d60; stroke:none;" d="M323 94L324 95L323 94z"/>
<path style="fill:#9a9853; stroke:none;" d="M337 94L338 95L337 94z"/>
<path style="fill:#735d2b; stroke:none;" d="M108 95L109 96L108 95z"/>
<path style="fill:#53462b; stroke:none;" d="M118 95L119 96L118 95z"/>
<path style="fill:#5d3f23; stroke:none;" d="M126 95L127 96L126 95z"/>
<path style="fill:#4f6f51; stroke:none;" d="M284 95L285 96L284 95z"/>
<path style="fill:#77875c; stroke:none;" d="M299 95L300 96L299 95z"/>
<path style="fill:#6a7a5f; stroke:none;" d="M321 95L322 96L321 95z"/>
<path style="fill:#a97a4b; stroke:none;" d="M83 96L84 97L83 96z"/>
<path style="fill:#a46e40; stroke:none;" d="M107 96L108 97L107 96z"/>
<path style="fill:#7e5c3a; stroke:none;" d="M117 96L118 97L117 96z"/>
<path style="fill:#b1803c; stroke:none;" d="M124 96L125 97L124 96z"/>
<path style="fill:#908e61; stroke:none;" d="M302.667 96.3333C302.222 96.7777 303.278 96.7223 303.333 96.6667C303.778 96.2221 302.722 96.2778 302.667 96.3333z"/>
<path style="fill:#7b8c65; stroke:none;" d="M316.667 96.3333C316.222 96.7777 317.278 96.7223 317.333 96.6667C317.778 96.2221 316.722 96.2778 316.667 96.3333z"/>
<path style="fill:#637b62; stroke:none;" d="M334 96L335 97L334 96z"/>
<path style="fill:#7a6e60; stroke:none;" d="M81.6667 97.3333C81.2222 97.7778 82.2778 97.7222 82.3333 97.6667C82.7778 97.2222 81.7222 97.2778 81.6667 97.3333z"/>
<path style="fill:#906b39; stroke:none;" d="M116 97L117 98L116 97z"/>
<path style="fill:#83542e; stroke:none;" d="M123 97L124 98L123 97z"/>
<path style="fill:#026d79; stroke:none;" d="M269 97C269.729 100.403 271.806 99.9865 275 100L269 97z"/>
<path style="fill:#7c805b; stroke:none;" d="M287 97L288 98L287 97z"/>
<path style="fill:#a18c43; stroke:none;" d="M333 97L334 98L333 97z"/>
<path style="fill:#566056; stroke:none;" d="M96 98C97.2484 98.6848 97.5484 98.7488 99 99C97.7517 98.3152 97.4515 98.2512 96 98z"/>
<path style="fill:#50413a; stroke:none;" d="M99.3333 98.6667C99.2778 98.7222 99.2222 99.7778 99.6667 99.3333C99.7223 99.2777 99.7777 98.2223 99.3333 98.6667z"/>
<path style="fill:#8d6221; stroke:none;" d="M115 98L116 99L115 98z"/>
<path style="fill:#4d3c33; stroke:none;" d="M122 98L123 99L122 98z"/>
<path style="fill:#c09f54; stroke:none;" d="M288 98L289 99L288 98z"/>
<path style="fill:#5d7e64; stroke:none;" d="M331 98L332 99L331 98z"/>
<path style="fill:#aa96af; stroke:none;" d="M540 98L541 99L540 98z"/>
<path style="fill:#523d31; stroke:none;" d="M105 99L106 100L105 99z"/>
<path style="fill:#836334; stroke:none;" d="M114 99L115 100L114 99z"/>
<path style="fill:#b88d49; stroke:none;" d="M290 99L291 100L290 99z"/>
<path style="fill:#9f692d; stroke:none;" d="M104 100L105 101L104 100z"/>
<path style="fill:#714e38; stroke:none;" d="M113 100L114 101L113 100z"/>
<path style="fill:#ed666d; stroke:none;" d="M266 142C270.894 140.033 270 135.66 270 131L270 100C264.14 100.981 265.87 105.197 265.985 110C266.229 120.111 263.891 132.265 266 142z"/>
<path style="fill:#e51843; stroke:none;" d="M270 100L270 128C270 132.485 270.796 137.309 268 141C270.634 142.105 275.858 143.066 277.972 140.397C279.772 138.124 279 133.693 279 131L279 110C278.999 107.53 279.624 103.691 277.972 101.603C276.257 99.435 272.424 100.009 270 100z"/>
<path style="fill:#b18c51; stroke:none;" d="M292 100L293 101L292 100z"/>
<path style="fill:#ed646b; stroke:none;" d="M342 142C346.894 140.033 346 135.66 346 131L346 100C340.558 100.945 341.008 105.25 341 110C340.983 120.067 339.141 132.327 342 142z"/>
<path style="fill:#e83250; stroke:none;" d="M346 100L346 140C349.206 132.361 347 120.271 347 112C347 108.017 347.552 103.699 346 100z"/>
<path style="fill:#e61944; stroke:none;" d="M347 100L347 128C347 132.903 347.69 137.386 344 141C346.669 142.12 352.873 143.247 354.933 140.397C356.574 138.126 355.078 133.604 355.015 131C354.795 122.004 356.562 111.666 354 103C355.314 102.232 355.232 102.314 356 101C352.959 100.1 350.169 100.008 347 100z"/>
<path style="fill:#8b7051; stroke:none;" d="M81 101L82 102L81 101z"/>
<path style="fill:#f79d39; stroke:none;" d="M82 101C81.4808 103.337 81.52 104.64 82 107C86.2031 105.589 85.5133 102.95 82 101z"/>
<path style="fill:#b8894e; stroke:none;" d="M84 101L85 102L84 101z"/>
<path style="fill:#7d6e46; stroke:none;" d="M98.3333 101.667C98.2778 101.722 98.2222 102.778 98.6667 102.333C98.7223 102.278 98.7777 101.222 98.3333 101.667z"/>
<path style="fill:#bf9d5e; stroke:none;" d="M294 101L295 102L294 101z"/>
<path style="fill:#848766; stroke:none;" d="M325 101L326 102L325 101z"/>
<path style="fill:#796852; stroke:none;" d="M85 102L86 103L85 102z"/>
<path style="fill:#f59c49; stroke:none;" d="M264 102L264 140C265.441 136.565 265 132.702 265 129C265 120.993 267.105 109.4 264 102z"/>
<path style="fill:#e93d53; stroke:none;" d="M279 102L279 140C280.441 136.565 280 132.702 280 129C280 120.993 282.105 109.4 279 102z"/>
<path style="fill:#ad944a; stroke:none;" d="M297 102L298 103L297 102z"/>
<path style="fill:#6d805d; stroke:none;" d="M322 102L323 103L322 102z"/>
<path style="fill:#f69d3c; stroke:none;" d="M357 102C353.723 113.085 356 127.452 356 139C359.008 131.832 356.988 120.752 357 113C357.006 109.402 357.828 105.449 357 102z"/>
<path style="fill:#60482c; stroke:none;" d="M102 103L103 104L102 103z"/>
<path style="fill:#5b7c6c; stroke:none;" d="M301.667 103.333C301.222 103.778 302.278 103.722 302.333 103.667C302.778 103.222 301.722 103.278 301.667 103.333z"/>
<path style="fill:#006b77; stroke:none;" d="M304 103C307.697 104.552 312.017 104 316 104C312.302 102.448 307.983 103 304 103z"/>
<path style="fill:#999555; stroke:none;" d="M318.667 103.333C318.222 103.778 319.278 103.722 319.333 103.667C319.778 103.222 318.722 103.278 318.667 103.333z"/>
<path style="fill:#e50948; stroke:none;" d="M354 103C356.551 113.715 355 126.02 355 137C357.902 130.084 356.003 119.478 356 112C355.999 108.683 356.604 105.276 354 103z"/>
<path style="fill:#aa7b9d; stroke:none;" d="M543 103L544 104L543 103z"/>
<path style="fill:#1c343d; stroke:none;" d="M99 104L99 108C99.7102 106.241 99.7102 105.759 99 104z"/>
<path style="fill:#926b34; stroke:none;" d="M110 104L111 105L110 104z"/>
<path style="fill:#ed5b76; stroke:none;" d="M265 104L265 138C266.328 134.834 266 131.419 266 128C266 120.785 267.802 110.677 265 104z"/>
<path style="fill:#ab9151; stroke:none;" d="M306 104C308.613 105.098 311.165 104.993 314 105C311.387 103.902 308.836 104.007 306 104z"/>
<path style="fill:#ffb51f; stroke:none;" d="M411 104L411 162C412.769 157.785 412 152.535 412 148L412 120C412 114.92 412.981 108.72 411 104z"/>
<path style="fill:#a77e50; stroke:none;" d="M81 105L82 106L81 105z"/>
<path style="fill:#876f49; stroke:none;" d="M85 106L86 107L85 106z"/>
<path style="fill:#a26b3b; stroke:none;" d="M114 106L115 107L114 106z"/>
<path style="fill:#847a51; stroke:none;" d="M91 108L92 109L91 108z"/>
<path style="fill:#ffe084; stroke:none;" d="M99 113L99 108C90.6356 108.099 90.6356 112.901 99 113z"/>
<path style="fill:#ae9033; stroke:none;" d="M99.6667 108.333C99.2222 108.778 100.278 108.722 100.333 108.667C100.778 108.222 99.7222 108.278 99.6667 108.333z"/>
<path style="fill:#857b3b; stroke:none;" d="M101 108C102.506 108.683 103.315 108.826 105 109C103.494 108.317 102.685 108.174 101 108z"/>
<path style="fill:#564529; stroke:none;" d="M105 108L106 109L105 108z"/>
<path style="fill:#865f43; stroke:none;" d="M107 108L108 109L107 108z"/>
<path style="fill:#ffd042; stroke:none;" d="M99 109L99 113C104.296 113.063 107.103 114.396 111 118C117.41 110.579 103.781 109.003 99 109z"/>
<path style="fill:#60452b; stroke:none;" d="M112 109L113 110L112 109z"/>
<path style="fill:#9e6937; stroke:none;" d="M111 110L112 111L111 110z"/>
<path style="fill:#574929; stroke:none;" d="M111 111L112 112L111 111z"/>
<path style="fill:#51482c; stroke:none;" d="M112 112L113 113L112 112z"/>
<path style="fill:#12436a; stroke:none;" d="M93 113C95.0521 113.874 96.7472 113.953 99 114C96.9479 113.126 95.2528 113.047 93 113z"/>
<path style="fill:#1e3944; stroke:none;" d="M99 113L99 122C100.256 119.006 100.256 115.994 99 113z"/>
<path style="fill:#514f34; stroke:none;" d="M105 113L106 114L105 113z"/>
<path style="fill:#bea955; stroke:none;" d="M106 113L107 114L106 113z"/>
<path style="fill:#4c4132; stroke:none;" d="M107 114L108 115L107 114z"/>
<path style="fill:#b49a3c; stroke:none;" d="M113 114L114 115L113 114z"/>
<path style="fill:#726241; stroke:none;" d="M109 116L110 117L109 116z"/>
<path style="fill:#baa151; stroke:none;" d="M113 116L114 117L113 116z"/>
<path style="fill:#706649; stroke:none;" d="M110 117L111 118L110 117z"/>
<path style="fill:#a38f3b; stroke:none;" d="M112 117L113 118L112 117z"/>
<path style="fill:#aa85a0; stroke:none;" d="M551 117L552 118L551 117z"/>
<path style="fill:#c179b4; stroke:none;" d="M552 119L553 120L552 119z"/>
<path style="fill:#504335; stroke:none;" d="M132 121L133 122L132 121z"/>
<path style="fill:#b68242; stroke:none;" d="M72 122C79.4089 125.109 90.9754 123 99 123C91.5911 119.891 80.0246 122 72 122z"/>
<path style="fill:#ad6732; stroke:none;" d="M99 122L99 134C100.512 130.396 100.512 125.604 99 122z"/>
<path style="fill:#ab699c; stroke:none;" d="M553 122L553 125C553.696 123.446 553.696 123.554 553 122z"/>
<path style="fill:#a6725b; stroke:none;" d="M58 134C62.2151 135.769 67.4645 135 72 135L99 135C94.7849 133.231 89.5355 134 85 134L58 134z"/>
<path style="fill:#70707a; stroke:none;" d="M99 134C103.469 135.875 109.191 135 114 135L145 135C140.531 133.125 134.809 134 130 134L99 134z"/>
<path style="fill:#1c91d4; stroke:none;" d="M60 135C67.1593 138.004 78.2563 136 86 136L144 136C136.841 132.996 125.744 135 118 135L60 135z"/>
<path style="fill:#3aade6; stroke:none;" d="M0 161C7.15931 164.004 18.2563 162 26 162L84 162C76.8407 158.996 65.7438 161 58 161L0 161z"/>
<path style="fill:#1896d3; stroke:none;" d="M84 161C87.9586 162.661 92.7396 162 97 162L120 162L201 162C197.041 160.339 192.26 161 188 161L165 161L84 161z"/>
<path style="fill:#ffa522; stroke:none;" d="M286 161C289.959 162.661 294.74 162 299 162L324 162L410 162C406.041 160.339 401.26 161 397 161L372 161L286 161z"/>
<path style="fill:#c04091; stroke:none;" d="M412 161C420.357 164.507 433.94 162 443 162L512 162C503.643 158.493 490.06 161 481 161L412 161z"/>
<path style="fill:#a13071; stroke:none;" d="M512 161C515.699 162.552 520.017 162 524 162L545 162L620 162C616.301 160.448 611.983 161 608 161L587 161L512 161z"/>
<path style="fill:#873c88; stroke:none;" d="M0 162C5.46249 164.292 13.113 163 19 163L60 163L201 163C195.538 160.708 187.887 162 182 162L141 162L0 162z"/>
<path style="fill:#794692; stroke:none;" d="M88 164C91.6987 165.552 96.0172 165 100 165L122 165L200 165C188.92 168.275 174.541 166 163 166L88 166C95.1593 169.004 106.256 167 114 167L171 167L191 167C193.659 167.005 197.326 166.533 199.397 168.603C203.138 172.345 201 184.068 201 189L201 246C199.277 245.066 197.894 244.465 196 244C198.908 247.345 202.63 250.11 206 253C208.696 243.877 207 232.489 207 223L207 162C202.828 162.123 199.141 163.829 194.996 163.981C159.438 165.291 123.585 164 88 164z"/>
<path style="fill:#4eb27c; stroke:none;" d="M207 162C209.312 215.841 208 270.054 208 324L306 324C297.776 314.003 287.176 305.224 278.004 296.001C273.739 291.712 268.712 287.476 265.975 281.999C257.818 265.679 252.103 242.069 256.015 224C262.195 195.455 292.89 173.359 322 180.76C338.779 185.026 348.336 195.198 360.289 206.754C370.238 216.372 380.216 226.042 389.83 236C396.644 243.057 402.951 252.78 412 257C409.52 246.585 411 234.669 411 224L411 164C394.06 160.855 375.208 163 358 163L257 163C241.133 163 222.455 165.68 207 162z"/>
<path style="fill:#3ab587; stroke:none;" d="M208 162C213.462 164.292 221.113 163 227 163L268 163L411 163C405.537 160.708 397.887 162 392 162L351 162L208 162z"/>
<path style="fill:#49b170; stroke:none;" d="M411 162C409.521 162.986 409.797 163 408 163C409.248 163.685 409.549 163.749 411 164L411 256C413.802 249.322 412 239.216 412 232L412 184C412 177.314 413.599 168.194 411 162z"/>
<path style="fill:#5fc4e1; stroke:none;" d="M412 162L412 324C413.981 319.28 413 313.08 413 308L413 277L413 167C423.712 169.55 436.024 168 447 168L512 168C504.121 164.694 491.534 167 483 167L416 167C423.152 164.886 431.573 166 439 166L481 166L620 166L620 163L480 163L437 163C428.791 163 420.024 163.91 412 162z"/>
<path style="fill:#55d6ea; stroke:none;" d="M413 162C418.707 164.395 426.846 163 433 163L474 163L620 163C614.293 160.605 606.154 162 600 162L559 162L413 162z"/>
<path style="fill:#764696; stroke:none;" d="M0 163L0 167L200 166C196.301 164.448 191.983 165 188 165L166 165L88 165C99.0804 161.725 113.459 164 125 164L201 164C195.538 161.708 187.887 163 182 163L141 163L0 163z"/>
<path style="fill:#60c4de; stroke:none;" d="M416 166C423.879 169.306 436.466 167 445 167L512 167C501.758 170.027 488.662 168 478 168L438 168C429.661 168 421.226 168.527 413 167L413 324L509 324C502.644 313.122 490.803 305.01 482.365 295.661C478.54 291.424 473.851 286.282 477.282 280.218C478.825 277.493 482.598 276.221 485 274.356C489.24 271.063 492.947 267.095 497 263.576C502.345 258.935 506.426 255.627 513 253C511.068 248.082 507.242 244.74 503.7 240.91C496.407 233.025 488.594 225.594 481 218C477.859 214.859 470.298 209.696 469.631 205.059C469.264 202.504 471.959 201.435 474.005 201.163C478.318 200.59 483.359 202.435 487 204.613C492.741 208.046 497.314 213.314 502 218L524 240C526.192 238.403 528.515 236.82 529.214 233.995C530.219 229.928 527.352 226.231 529.013 222C532.456 213.229 543.419 205.503 550 199.004C552.279 196.753 555.485 192.606 558.996 192.461C563.799 192.262 569.244 200.244 571 204C577.01 205.685 581.756 212.896 586.079 217.246C596.942 228.175 607.456 242.164 620 251L620 166L416 166z"/>
<path style="fill:#794695; stroke:none;" d="M0 167L0 324L99 324C91.4331 313.597 80.249 304.018 71.0046 295.039C66.9963 291.146 60.128 286.131 58.0285 280.83C56.9155 278.02 58.1838 274.768 58.8735 272C60.2896 266.317 61.6908 260.635 63.2901 255C67.4448 240.362 68 227.118 68 212C68 205.132 65.9998 194.486 68.7423 188.109C70.931 183.02 77.4775 184 82 184C84.953 174.039 103.359 183.795 111 183.985C118.083 184.162 128.283 182.023 134.91 184.742C137.743 185.905 139.407 188.559 141.615 190.53C143.781 192.465 146.604 193.479 148.702 195.474C150.592 197.271 151.57 199.771 153.295 201.715C161.938 211.458 171.629 220.076 180.925 229.128C187.443 235.475 192.334 242.422 201 246L201 189C201 184.103 203.124 172.582 199.972 168.603C197.632 165.649 190.316 167 187 167L150 167L0 167z"/>
<path style="fill:#4bc17b; stroke:none;" d="M207 167L207 324C208.552 320.301 208 315.983 208 312L208 289L208 207L208 181C208 176.464 208.769 171.215 207 167z"/>
<path style="fill:#bcacd8; stroke:none;" d="M84.6667 178.333C84.2222 178.778 85.2778 178.722 85.3333 178.667C85.7778 178.222 84.7222 178.278 84.6667 178.333z"/>
<path style="fill:#dfebf8; stroke:none;" d="M82 185L105 185L105 183C97.9834 182.054 83.2725 173.944 82 185z"/>
<path style="fill:#86b99d; stroke:none;" d="M307 179C309.332 179.985 311.457 179.981 314 180C311.668 179.015 309.543 179.019 307 179z"/>
<path style="fill:#ad99c2; stroke:none;" d="M82 180L83 181L82 180z"/>
<path style="fill:#91b79f; stroke:none;" d="M299.667 180.333C299.222 180.778 300.278 180.722 300.333 180.667C300.778 180.222 299.722 180.278 299.667 180.333z"/>
<path style="fill:#c8c1c9; stroke:none;" d="M275 287C268.609 268.109 259.367 245.266 264.515 225C270.767 200.383 300.863 187.37 324 194.209C334.971 197.452 341.966 204.642 351 211C349.549 202.472 343.987 191.13 336.7 186.075C321.689 175.662 296.88 178.591 282 187.232C258.793 200.71 250.945 227.931 257.001 253C258.961 261.115 260.84 269.173 263.808 277C264.89 279.855 265.722 284.167 268.417 285.972C270.295 287.23 272.859 286.975 275 287z"/>
<path style="fill:#7ab99e; stroke:none;" d="M320.667 180.333C320.222 180.778 321.278 180.722 321.333 180.667C321.778 180.222 320.722 180.278 320.667 180.333z"/>
<path style="fill:#bcaed5; stroke:none;" d="M97 181L98 182L97 181z"/>
<path style="fill:#79b291; stroke:none;" d="M294.667 181.333C294.222 181.778 295.278 181.722 295.333 181.667C295.778 181.222 294.722 181.278 294.667 181.333z"/>
<path style="fill:#bca5d7; stroke:none;" d="M101 182L102 183L101 182z"/>
<path style="fill:#b99fd4; stroke:none;" d="M105 183L106 184L105 183z"/>
<path style="fill:#9165aa; stroke:none;" d="M71 184C74.1633 185.327 77.5856 185 81 185C77.8367 183.673 74.4144 184 71 184z"/>
<path style="fill:#bcb2d3; stroke:none;" d="M81 184L82 185L81 184z"/>
<path style="fill:#f7f8fc; stroke:none;" d="M69 292C76.6177 292 84.4022 291.533 92 292.09C95.3656 292.337 98.6213 293.65 102 293.606C112.314 293.475 122.692 292.213 133 292L133 273C130.642 276.119 129.867 283.098 126.545 285.079C124.381 286.369 123.065 283.514 122.363 281.976C120.609 278.138 119.368 274.193 119 270C122.837 271.716 126.183 274.33 129 270L133 271C133.769 261.786 133 252.263 133 243L133 185L88 185C83.6802 185 74.1477 183.221 70.6034 186.028C68.6394 187.583 69.016 190.791 69.0008 193C68.9548 199.666 69 206.334 69 213C69 239.319 68.4743 265.689 69 292z"/>
<path style="fill:#9f8bb9; stroke:none;" d="M109.667 184.333C109.222 184.778 110.278 184.722 110.333 184.667C110.778 184.222 109.722 184.278 109.667 184.333z"/>
<path style="fill:#9367ab; stroke:none;" d="M111 184C116.715 186.398 124.831 185 131 185C125.285 182.602 117.169 184 111 184z"/>
<path style="fill:#a98ecb; stroke:none;" d="M131 184C132.769 184.779 134.036 184.912 136 185C134.231 184.221 132.964 184.088 131 184z"/>
<path style="fill:#a68ab5; stroke:none;" d="M69 185L70 186L69 185z"/>
<path style="fill:#daeafa; stroke:none;" d="M133 185L133 248C133 261.303 132.332 274.806 134 288C138.145 285.011 137 279.687 137 275L137 241L138 243C141.318 236.748 138.484 228.866 139.171 222C140.155 212.15 144.789 202.903 145 193C138.369 192.253 138.906 185.986 133 185z"/>
<path style="fill:#aa9ac9; stroke:none;" d="M137 185L138 186L137 185z"/>
<path style="fill:#a385b6; stroke:none;" d="M68 187L68 234C69.6611 230.041 69 225.26 69 221L69 199C69 195.017 69.552 190.699 68 187z"/>
<path style="fill:#9a87bb; stroke:none;" d="M138 187L138 192C138.83 189.969 138.83 189.031 138 187z"/>
<path style="fill:#a597a6; stroke:none;" d="M338 187C341.336 192.358 345.586 197.236 348.261 203C349.905 206.543 350.057 210.425 351.487 214C354.353 221.169 357.379 227.05 357.791 235C358.069 240.367 356.357 245.763 355.465 251C354.837 254.683 355.822 258.354 355.15 262C353.583 270.513 349.405 278.69 347 287C353.39 288.697 354.943 284.36 356.95 279C359.641 271.811 361.748 264.49 363.424 257C368.981 232.164 365.887 197.727 338 187z"/>
<path style="fill:#5e387d; stroke:none;" d="M139 188C139.661 191.814 141.259 192.57 145 193L139 188z"/>
<path style="fill:#685c66; stroke:none;" d="M75 207C80.7405 204.436 82.2178 205.358 88 207C87.173 201.4 84.8034 196.331 83 191C77.1836 192.883 75.4877 201.449 75 207z"/>
<path style="fill:#a0d4e6; stroke:none;" d="M558.667 191.333C558.222 191.778 559.278 191.722 559.333 191.667C559.778 191.222 558.722 191.278 558.667 191.333z"/>
<path style="fill:#56a9c6; stroke:none;" d="M560 191C556.487 195.554 553.069 199.91 548.999 204C544.802 208.218 539.944 211.88 539 218C546.951 216.773 552.479 208.357 557.999 203.039C559.867 201.241 563.736 198.838 563.798 195.929C563.849 193.553 561.605 192.238 560 191z"/>
<path style="fill:#b9b3ba; stroke:none;" d="M83 192L84 193L83 192z"/>
<path style="fill:#a697c0; stroke:none;" d="M140 192L141 193L140 192z"/>
<path style="fill:#a3aca5; stroke:none;" d="M305 192C308.163 193.327 311.586 193 315 193C311.837 191.673 308.414 192 305 192z"/>
<path style="fill:#f2f2f2; stroke:none;" d="M530 220C533.584 220 531.47 225.188 532.5 228C535.109 235.124 548.457 241.803 554 235C551.612 234.735 549.406 234.857 547 235C548.186 233.814 548.584 233.472 550 233C549.279 230.24 548.91 227.851 549 225L544 223C549.062 213.243 559.482 207.546 565 198C558.434 200.544 553.904 206.13 549 210.999C545.575 214.399 543.024 217.421 538 217C543.647 207.605 553.984 201.8 559 192C551.67 194.84 546.45 201.55 541 207C536.962 211.038 532.435 214.779 530 220z"/>
<path style="fill:#9186b8; stroke:none;" d="M145 193L146 194L145 193z"/>
<path style="fill:#8eac9a; stroke:none;" d="M299.667 193.333C299.222 193.778 300.278 193.722 300.333 193.667C300.778 193.222 299.722 193.278 299.667 193.333z"/>
<path style="fill:#518e62; stroke:none;" d="M266 256C272.034 252.353 276.391 243.384 284.996 245.693C289.196 246.82 291.244 250.241 292.792 254.001C295.965 261.703 299.162 270.03 301.464 278.015C302.5 281.611 304.321 285.429 302.218 288.981C296.343 298.905 278.293 298.624 275 287L270 288C276.815 296.984 285.711 304.899 293.917 312.593C297.826 316.26 300.87 320.902 306.001 323.066C309.38 324.491 313.416 324 317 324L338 324L411 324L411 283C411 274.342 410.414 265.541 412 257C398.788 247.693 387.671 233.421 376.424 221.834C371.018 216.265 365.76 209.91 359 206C360.864 212.473 364.295 218.283 365.536 225C368.274 239.814 364.265 253.778 360.36 268C358.468 274.89 356.044 288.485 347 287C342.625 295.59 333.819 297.855 325.001 294.666C321.878 293.537 319.147 292.312 317.908 288.981C316.422 284.985 318.368 280.655 319.938 277C322.862 270.196 325.195 262.976 327.719 256C329.185 251.948 331.399 247.021 336.004 245.774C343.634 243.708 350.011 251.973 355 256C356.35 238.923 360.141 223.715 348.471 209.015C327.747 182.906 280.017 189.149 266.41 219C261.134 230.573 265.054 244.032 266 256z"/>
<path style="fill:#acb0aa; stroke:none;" d="M320.667 193.333C320.222 193.778 321.278 193.722 321.333 193.667C321.778 193.222 320.722 193.278 320.667 193.333z"/>
<path style="fill:#a1dfe4; stroke:none;" d="M555 193L556 194L555 193z"/>
<path style="fill:#b2afb6; stroke:none;" d="M78 194L79 195L78 194z"/>
<path style="fill:#c7d7f1; stroke:none;" d="M145 194C144.292 202.12 141.036 209.959 139.615 218C138.629 223.583 139 229.352 139 235L141 235C142.369 224.837 145.905 214.936 148.373 205C149.626 199.957 151.201 195.353 145 194z"/>
<path style="fill:#a18dc0; stroke:none;" d="M148 194L149 195L148 194z"/>
<path style="fill:#b1b5ab; stroke:none;" d="M324.667 194.333C324.222 194.778 325.278 194.722 325.333 194.667C325.778 194.222 324.722 194.278 324.667 194.333z"/>
<path style="fill:#9f9aa1; stroke:none;" d="M84 195L85 196L84 195z"/>
<path style="fill:#633e84; stroke:none;" d="M150 196C148.864 209.914 142.276 223.168 140.3 237C138.733 247.971 140 259.923 140 271C140 275.97 141.035 282.465 138.142 286.829C135.058 291.483 130.573 291.275 126.495 294.019C124.693 295.23 123.948 297.573 121.776 298.304C116.268 300.157 106.66 294.864 101 293.978C91.2114 292.444 79.9512 294 70 294C75.555 301.886 83.228 308.495 90.0841 315.261C93.0162 318.154 96.0087 321.969 100.001 323.4C103.333 324.595 107.518 324 111 324L133 324L206 324L206 274C206 267.71 207.832 257.892 204.86 252.185C202.224 247.121 195.178 243.099 191.155 239.049C177.615 225.421 160.401 212.221 150 196z"/>
<path style="fill:#8caa9b; stroke:none;" d="M290 196L291 197L290 196z"/>
<path style="fill:#8ca192; stroke:none;" d="M330 196L331 197L330 196z"/>
<path style="fill:#938e95; stroke:none;" d="M77 197L78 198L77 197z"/>
<path style="fill:#9d939c; stroke:none;" d="M81 197L82 198L81 197z"/>
<path style="fill:#aed8e5; stroke:none;" d="M555 197L556 198L555 197z"/>
<path style="fill:#a6cfe2; stroke:none;" d="M564.667 197.333C564.222 197.778 565.278 197.722 565.333 197.667C565.778 197.222 564.722 197.278 564.667 197.333z"/>
<path style="fill:#5ca6c8; stroke:none;" d="M566 197C562.189 201.937 558.332 206.551 553.961 211.015C550.055 215.002 545.882 218.282 545 224C553.345 222.316 558.616 213.977 564.424 208.325C566.178 206.618 569.743 204.693 569.798 201.925C569.845 199.551 567.605 198.238 566 197z"/>
<path style="fill:#ffffff; stroke:none;" d="M81.3333 198.667C81.2778 198.722 81.2223 199.778 81.6667 199.333C81.7222 199.278 81.7778 198.222 81.3333 198.667z"/>
<path style="fill:#7aa993; stroke:none;" d="M353.333 198.667C353.278 198.722 353.222 199.778 353.667 199.333C353.722 199.278 353.778 198.222 353.333 198.667z"/>
<path style="fill:#c2d0d3; stroke:none;" d="M554 198L555 199L554 198z"/>
<path style="fill:#c3c0c7; stroke:none;" d="M76 199L77 200L76 199z"/>
<path style="fill:#8f8793; stroke:none;" d="M80 199C81.1266 201.006 81.8734 201.006 83 199L80 199z"/>
<path style="fill:#97a096; stroke:none;" d="M284 199L285 200L284 199z"/>
<path style="fill:#939092; stroke:none;" d="M336 199L337 200L336 199z"/>
<path style="fill:#b5d9e6; stroke:none;" d="M561 199L562 200L561 199z"/>
<path style="fill:#bab1bd; stroke:none;" d="M86 200L87 201L86 200z"/>
<path style="fill:#9d7fb0; stroke:none;" d="M149 200L150 201L149 200z"/>
<path style="fill:#b8d8eb; stroke:none;" d="M552 200L553 201L552 200z"/>
<path style="fill:#afd5e6; stroke:none;" d="M563 200L564 201L563 200z"/>
<path style="fill:#f2f2f2; stroke:none;" d="M512 250C515.33 247.655 518.117 244.876 521 242C518.12 246.932 513.894 250.85 510 255C513.56 259.121 521.602 258.883 526 256C524.67 254.247 523.753 253.33 522 252C526.783 247.217 534.578 242.402 532 235C527.897 236.483 525.329 239.483 521.089 236.498C508.624 227.721 501.147 212.609 488 204.779C484.042 202.422 478.643 200.895 474.005 201.098C471.691 201.199 468.539 202.099 468.921 205.059C469.611 210.396 478.399 216.399 482 220L494 232L512 250z"/>
<path style="fill:#c7d4da; stroke:none;" d="M478.667 201.333C478.222 201.778 479.278 201.722 479.333 201.667C479.778 201.222 478.722 201.278 478.667 201.333z"/>
<path style="fill:#b3d9e4; stroke:none;" d="M551 201L552 202L551 201z"/>
<path style="fill:#a49fa5; stroke:none;" d="M75 202L76 203L75 202z"/>
<path style="fill:#b8d8db; stroke:none;" d="M550 202L551 203L550 202z"/>
<path style="fill:#9c979e; stroke:none;" d="M87 203L88 204L87 203z"/>
<path style="fill:#8ea398; stroke:none;" d="M342 203L343 204L342 203z"/>
<path style="fill:#488963; stroke:none;" d="M357 203C357.684 204.58 357.805 204.777 359 206C358.316 204.42 358.195 204.223 357 203z"/>
<path style="fill:#b0d6ea; stroke:none;" d="M485 203L486 204L485 203z"/>
<path style="fill:#9cccdc; stroke:none;" d="M561 203L562 204L561 203z"/>
<path style="fill:#d5edf5; stroke:none;" d="M570.333 203.667C570.278 203.722 570.222 204.778 570.667 204.333C570.722 204.278 570.778 203.222 570.333 203.667z"/>
<path style="fill:#5cacc7; stroke:none;" d="M572 203C568.487 207.554 565.069 211.91 560.999 216C556.802 220.218 551.944 223.88 551 230C556.849 229.074 560.195 224.228 564.13 220.167C568.118 216.052 572.525 212.554 577 209C573.088 216.842 566.104 222.852 559.996 229.001C556.35 232.672 552.758 236.836 548 239.08C543.21 241.34 539.626 238.969 535 239.928C531.131 240.73 525.5 246.313 524.176 249.98C522.563 254.446 530.405 255.926 533 258.109C539.171 263.301 544.955 268.951 551 274.285C553.949 276.888 558.152 280.081 559.353 284C561.56 291.209 552.558 295.659 547.286 291.427C535.275 281.788 526.845 268.098 518 256C515.316 258.616 514.878 261.939 512.772 265C509.741 269.407 505.736 273.052 502.17 277C496.203 283.606 490.609 293.474 481 294C485.559 302.303 494.34 308.434 500.925 315.086C503.711 317.901 506.292 322.036 510.171 323.436C513.43 324.612 517.592 324 521 324L544 324L620 324L620 274C620 267.462 621.676 258.182 619.397 252C617.443 246.7 611.403 242.385 607.665 238.286C601.808 231.862 595.384 225.982 589.339 219.739C583.792 214.011 578.533 207.602 572 203z"/>
<path style="fill:#b2b0b7; stroke:none;" d="M74.3333 204.667C74.2778 204.722 74.2222 205.778 74.6667 205.333C74.7222 205.278 74.7778 204.222 74.3333 204.667z"/>
<path style="fill:#b8b1b9; stroke:none;" d="M78 204L79 205L78 204z"/>
<path style="fill:#8775aa; stroke:none;" d="M148 204L149 205L148 204z"/>
<path style="fill:#90ad97; stroke:none;" d="M277 204L278 205L277 204z"/>
<path style="fill:#b6e0df; stroke:none;" d="M548 204L549 205L548 204z"/>
<path style="fill:#a5d0dd; stroke:none;" d="M560 204L561 205L560 204z"/>
<path style="fill:#fff4f5; stroke:none;" d="M569 204C560.369 211.029 545.408 220.655 550 233C548.203 233 548.479 233.014 547 234C549.586 235.053 552.218 234.795 555 235C556.293 232.471 556.967 230.823 557 228C554.386 229.002 552.773 229.322 550 229C553.824 222.886 558.998 218.148 563.985 213C566.522 210.381 569.504 207.784 569 204z"/>
<path style="fill:#b0abb2; stroke:none;" d="M84 205L85 206L84 205z"/>
<path style="fill:#a2c7ce; stroke:none;" d="M559 205L560 206L559 205z"/>
<path style="fill:#bcd4e6; stroke:none;" d="M567 205L568 206L567 205z"/>
<path style="fill:#98969b; stroke:none;" d="M77 206L78 207L77 206z"/>
<path style="fill:#b2dada; stroke:none;" d="M546 206L547 207L546 206z"/>
<path style="fill:#a5cdd6; stroke:none;" d="M569 206L570 207L569 206z"/>
<path style="fill:#b2dde7; stroke:none;" d="M491 207L492 208L491 207z"/>
<path style="fill:#afdde5; stroke:none;" d="M545 207L546 208L545 207z"/>
<path style="fill:#adcbd5; stroke:none;" d="M557 207L558 208L557 207z"/>
<path style="fill:#93c2e4; stroke:none;" d="M564 207L565 208L564 207z"/>
<path style="fill:#b4dbe8; stroke:none;" d="M544 208L545 209L544 208z"/>
<path style="fill:#b4d3e3; stroke:none;" d="M556 208L557 209L556 208z"/>
<path style="fill:#b3d3e7; stroke:none;" d="M555 209L556 210L555 209z"/>
<path style="fill:#97c8d3; stroke:none;" d="M567 209L568 210L567 209z"/>
<path style="fill:#ccddf7; stroke:none;" d="M576.333 209.667C576.278 209.722 576.222 210.778 576.667 210.333C576.722 210.278 576.778 209.222 576.333 209.667z"/>
<path style="fill:#90a996; stroke:none;" d="M349 210L350 211L349 210z"/>
<path style="fill:#bbd1e6; stroke:none;" d="M554 210L555 211L554 210z"/>
<path style="fill:#99c9d8; stroke:none;" d="M566 210L567 211L566 210z"/>
<path style="fill:#f5f4ed; stroke:none;" d="M575 210C568.552 214.913 559.249 221.986 557 230C562.701 227.341 575.919 216.897 575 210z"/>
<path style="fill:#b3d3e7; stroke:none;" d="M553 211L554 212L553 211z"/>
<path style="fill:#a3c8dc; stroke:none;" d="M565 211L566 212L565 211z"/>
<path style="fill:#bed3df; stroke:none;" d="M540 212L541 213L540 212z"/>
<path style="fill:#b4d3e3; stroke:none;" d="M552 212L553 213L552 212z"/>
<path style="fill:#a0cadb; stroke:none;" d="M564 212L565 213L564 212z"/>
<path style="fill:#a2c7ce; stroke:none;" d="M575 212L576 213L575 212z"/>
<path style="fill:#90ab9d; stroke:none;" d="M269 213L270 214L269 213z"/>
<path style="fill:#b5d0d9; stroke:none;" d="M551 213L552 214L551 213z"/>
<path style="fill:#9fc7db; stroke:none;" d="M563 213L564 214L563 213z"/>
<path style="fill:#b3dee7; stroke:none;" d="M498 214L499 215L498 214z"/>
<path style="fill:#bad8d3; stroke:none;" d="M550 214L551 215L550 214z"/>
<path style="fill:#9ecbd8; stroke:none;" d="M562 214L563 215L562 214z"/>
<path style="fill:#a4c9dd; stroke:none;" d="M569 214L570 215L569 214z"/>
<path style="fill:#a8accf; stroke:none;" d="M145 215L146 216L145 215z"/>
<path style="fill:#839c8a; stroke:none;" d="M268 215L269 216L268 215z"/>
<path style="fill:#a2d0d5; stroke:none;" d="M538.333 215.667C538.278 215.722 538.222 216.778 538.667 216.333C538.722 216.278 538.778 215.222 538.333 215.667z"/>
<path style="fill:#adcdd5; stroke:none;" d="M549 215L550 216L549 215z"/>
<path style="fill:#a3ccd7; stroke:none;" d="M561 215L562 216L561 215z"/>
<path style="fill:#9cc4e1; stroke:none;" d="M568 215L569 216L568 215z"/>
<path style="fill:#aed3da; stroke:none;" d="M548 216L549 217L548 216z"/>
<path style="fill:#a9c6e7; stroke:none;" d="M560 216L561 217L560 216z"/>
<path style="fill:#92c8da; stroke:none;" d="M572 216L573 217L572 216z"/>
<path style="fill:#b6d4da; stroke:none;" d="M547 217L548 218L547 217z"/>
<path style="fill:#a8ccda; stroke:none;" d="M559 217L560 218L559 217z"/>
<path style="fill:#afd8e7; stroke:none;" d="M502 218L503 219L502 218z"/>
<path style="fill:#b2d7df; stroke:none;" d="M546 218L547 219L546 218z"/>
<path style="fill:#a7c8dd; stroke:none;" d="M558 218L559 219L558 218z"/>
<path style="fill:#a0c5da; stroke:none;" d="M565 218L566 219L565 218z"/>
<path style="fill:#9cc8cf; stroke:none;" d="M570 218L571 219L570 218z"/>
<path style="fill:#a696c9; stroke:none;" d="M144 219L145 220L144 219z"/>
<path style="fill:#b3dee2; stroke:none;" d="M503 219L504 220L503 219z"/>
<path style="fill:#eaeae2; stroke:none;" d="M531 219C524.587 226.403 530.005 238.059 539.001 240.383C543.614 241.574 547.775 239.627 552 238C548.786 236.651 545.308 237.413 542.004 236.298C533.055 233.276 533.96 226.034 531 219z"/>
<path style="fill:#aad3da; stroke:none;" d="M545 219L546 220L545 219z"/>
<path style="fill:#b0d3e4; stroke:none;" d="M557 219L558 220L557 219z"/>
<path style="fill:#a6c9dc; stroke:none;" d="M564 219L565 220L564 219z"/>
<path style="fill:#a1c8da; stroke:none;" d="M569 219L570 220L569 219z"/>
<path style="fill:#b4dce9; stroke:none;" d="M504 220L505 221L504 220z"/>
<path style="fill:#b5dae3; stroke:none;" d="M556 220L557 221L556 220z"/>
<path style="fill:#a6c9dd; stroke:none;" d="M563 220L564 221L563 220z"/>
<path style="fill:#98c9dc; stroke:none;" d="M568 220L569 221L568 220z"/>
<path style="fill:#acdfe4; stroke:none;" d="M505 221L506 222L505 221z"/>
<path style="fill:#aacae0; stroke:none;" d="M544.333 221.667C544.278 221.722 544.222 222.778 544.667 222.333C544.722 222.278 544.778 221.222 544.333 221.667z"/>
<path style="fill:#aecee0; stroke:none;" d="M555 221L556 222L555 221z"/>
<path style="fill:#9fc4d8; stroke:none;" d="M562 221L563 222L562 221z"/>
<path style="fill:#96c7d5; stroke:none;" d="M567 221L568 222L567 221z"/>
<path style="fill:#acdfe4; stroke:none;" d="M506 222L507 223L506 222z"/>
<path style="fill:#b1cee4; stroke:none;" d="M554 222L555 223L554 222z"/>
<path style="fill:#949db6; stroke:none;" d="M143 223L144 224L143 223z"/>
<path style="fill:#b4dce9; stroke:none;" d="M507 223L508 224L507 223z"/>
<path style="fill:#97bed8; stroke:none;" d="M548 223L549 224L548 223z"/>
<path style="fill:#afd3e1; stroke:none;" d="M553 223L554 224L553 223z"/>
<path style="fill:#9fc3d6; stroke:none;" d="M565 223L566 224L565 223z"/>
<path style="fill:#84ad89; stroke:none;" d="M264.333 224.667C264.278 224.722 264.222 225.778 264.667 225.333C264.722 225.278 264.778 224.222 264.333 224.667z"/>
<path style="fill:#afdee0; stroke:none;" d="M508 224L509 225L508 224z"/>
<path style="fill:#9fd2de; stroke:none;" d="M564 224L565 225L564 224z"/>
<path style="fill:#b4dceb; stroke:none;" d="M509 225L510 226L509 225z"/>
<path style="fill:#a2cad6; stroke:none;" d="M563 225L564 226L563 225z"/>
<path style="fill:#e6b9b9; stroke:none;" d="M95 226C96.2484 226.685 96.5484 226.749 98 227C96.7517 226.315 96.4516 226.251 95 226z"/>
<path style="fill:#f17f86; stroke:none;" d="M110.667 226.333C110.222 226.778 111.278 226.722 111.333 226.667C111.778 226.222 110.722 226.278 110.667 226.333z"/>
<path style="fill:#97bdaa; stroke:none;" d="M255.333 226.667C255.278 226.722 255.222 227.778 255.667 227.333C255.722 227.278 255.778 226.222 255.333 226.667z"/>
<path style="fill:#b4dceb; stroke:none;" d="M510 226L511 227L510 226z"/>
<path style="fill:#9dc6db; stroke:none;" d="M557 226L558 227L557 226z"/>
<path style="fill:#a3cbd2; stroke:none;" d="M562 226L563 227L562 226z"/>
<path style="fill:#fac8c4; stroke:none;" d="M92 227L93 228L92 227z"/>
<path style="fill:#e84546; stroke:none;" d="M104 232C102.059 229.736 100.186 227.588 96.9969 227.287C90.2475 226.649 87.5294 234.808 90.179 239.985C91.8353 243.222 96.101 247.224 100 247.071C105.943 246.837 114.523 238.15 113.323 232.019C112.062 225.583 106.215 227.782 104 232z"/>
<path style="fill:#f69393; stroke:none;" d="M99 227L100 228L99 227z"/>
<path style="fill:#f4828c; stroke:none;" d="M107 227L108 228L107 227z"/>
<path style="fill:#dc3031; stroke:none;" d="M111 227C116.151 238.253 106.268 241.41 100 249C111.558 253.307 126.702 231.46 111 227z"/>
<path style="fill:#e9aaa7; stroke:none;" d="M114 227L115 228L114 227z"/>
<path style="fill:#9287b1; stroke:none;" d="M142 227L143 228L142 227z"/>
<path style="fill:#afdfdf; stroke:none;" d="M511 227L512 228L511 227z"/>
<path style="fill:#9ec8d3; stroke:none;" d="M550.333 227.667C550.278 227.722 550.222 228.778 550.667 228.333C550.722 228.278 550.778 227.222 550.333 227.667z"/>
<path style="fill:#9fc0d9; stroke:none;" d="M556 227L557 228L556 227z"/>
<path style="fill:#a2cad6; stroke:none;" d="M561 227L562 228L561 227z"/>
<path style="fill:#f49b99; stroke:none;" d="M91 228L92 229L91 228z"/>
<path style="fill:#e8707f; stroke:none;" d="M115 228L116 229L115 228z"/>
<path style="fill:#b3dbea; stroke:none;" d="M512 228L513 229L512 228z"/>
<path style="fill:#9fd2de; stroke:none;" d="M560 228L561 229L560 228z"/>
<path style="fill:#faacb2; stroke:none;" d="M90 229L91 230L90 229z"/>
<path style="fill:#ee898a; stroke:none;" d="M116 229L117 230L116 229z"/>
<path style="fill:#acdee4; stroke:none;" d="M513 229L514 230L513 229z"/>
<path style="fill:#aacad1; stroke:none;" d="M559 229L560 230L559 229z"/>
<path style="fill:#8ea794; stroke:none;" d="M263 230L263 240C264.346 236.793 264.346 233.207 263 230z"/>
<path style="fill:#a6d8de; stroke:none;" d="M514 230L515 231L514 230z"/>
<path style="fill:#a4c7e0; stroke:none;" d="M558 230L559 231L558 230z"/>
<path style="fill:#f5757f; stroke:none;" d="M89 231L90 232L89 231z"/>
<path style="fill:#f1acac; stroke:none;" d="M103 231L104 232L103 231z"/>
<path style="fill:#9388ad; stroke:none;" d="M141 231L142 232L141 231z"/>
<path style="fill:#afd7e7; stroke:none;" d="M515 231L516 232L515 231z"/>
<path style="fill:#a8d5d4; stroke:none;" d="M557 231L558 232L557 231z"/>
<path style="fill:#879b8f; stroke:none;" d="M357 232L357 240C358.161 237.23 358.161 234.77 357 232z"/>
<path style="fill:#799f86; stroke:none;" d="M366 232L366 240C367.161 237.23 367.161 234.77 366 232z"/>
<path style="fill:#acd9e5; stroke:none;" d="M516 232L517 233L516 232z"/>
<path style="fill:#a5ccdd; stroke:none;" d="M556 232L557 233L556 232z"/>
<path style="fill:#f9a0a9; stroke:none;" d="M88 233L88 237C88.7102 235.241 88.7102 234.759 88 233z"/>
<path style="fill:#eeb8c0; stroke:none;" d="M118 233L119 234L118 233z"/>
<path style="fill:#b5d5e4; stroke:none;" d="M555 233L556 234L555 233z"/>
<path style="fill:#e1d9ef; stroke:none;" d="M68.3333 234.667C68.2778 234.722 68.2222 235.778 68.6667 235.333C68.7222 235.278 68.7778 234.222 68.3333 234.667z"/>
<path style="fill:#e57c7c; stroke:none;" d="M118 234L118 237C118.696 235.446 118.696 235.554 118 234z"/>
<path style="fill:#b0d9ea; stroke:none;" d="M518 234L519 235L518 234z"/>
<path style="fill:#837ba7; stroke:none;" d="M140 235L141 236L140 235z"/>
<path style="fill:#acd8e5; stroke:none;" d="M519 235L520 236L519 235z"/>
<path style="fill:#ace7ea; stroke:none;" d="M529 235L530 236L529 235z"/>
<path style="fill:#aadde2; stroke:none;" d="M520 236L521 237L520 236z"/>
<path style="fill:#b7dbe8; stroke:none;" d="M527 237L528 238L527 237z"/>
<path style="fill:#cfb7e8; stroke:none;" d="M67.3333 238.667C67.2778 238.722 67.2222 239.778 67.6667 239.333C67.7222 239.278 67.7778 238.222 67.3333 238.667z"/>
<path style="fill:#add8e6; stroke:none;" d="M526 238L527 239L526 238z"/>
<path style="fill:#dce8f6; stroke:none;" d="M68 239C63.7038 248.704 61.9411 259.729 59.3735 270C58.6213 273.009 56.1248 278.545 58.0671 281.436C59.8478 284.087 65.1382 284.409 68 285C70.3377 275.181 69 264.056 69 254C69 249.191 69.8752 243.469 68 239z"/>
<path style="fill:#ffb6aa; stroke:none;" d="M89 239L90 240L89 239z"/>
<path style="fill:#ffa495; stroke:none;" d="M117 239L118 240L117 239z"/>
<path style="fill:#8476aa; stroke:none;" d="M139 239L140 240L139 239z"/>
<path style="fill:#a5d5e8; stroke:none;" d="M525 239L526 240L525 239z"/>
<path style="fill:#a8bbbc; stroke:none;" d="M536 239L537 240L536 239z"/>
<path style="fill:#60317e; stroke:none;" d="M139 240L139 285C140.552 281.301 140 276.983 140 273L140 253C140 248.74 140.661 243.959 139 240z"/>
<path style="fill:#e2f7fc; stroke:none;" d="M137 241L137 273C137 278.463 137.959 283.806 134 288L134 284C132.902 286.613 133.007 289.164 133 292C138.645 287.699 138 282.565 138 276L138 254C138 249.74 138.661 244.959 137 241z"/>
<path style="fill:#aa9ac6; stroke:none;" d="M66 242L67 243L66 242z"/>
<path style="fill:#e6e6e6; stroke:none;" d="M520 242C516.921 245.091 513.743 247.642 513 252C516.009 249.407 520.377 246.245 520 242z"/>
<path style="fill:#9a8eb6; stroke:none;" d="M138 243L138 288C139.661 284.041 139 279.26 139 275L139 255C139 251.017 139.552 246.699 138 243z"/>
<path style="fill:#7eba97; stroke:none;" d="M255 243L255 246C255.696 244.446 255.696 244.554 255 243z"/>
<path style="fill:#9fd0da; stroke:none;" d="M505 243L506 244L505 243z"/>
<path style="fill:#f2979c; stroke:none;" d="M95 245L96 246L95 245z"/>
<path style="fill:#e37572; stroke:none;" d="M111 245L112 246L111 245z"/>
<path style="fill:#8dac90; stroke:none;" d="M264 245L264 248C264.696 246.446 264.696 246.554 264 245z"/>
<path style="fill:#7b9488; stroke:none;" d="M280 245C281.248 245.685 281.548 245.749 283 246C281.752 245.315 281.452 245.251 280 245z"/>
<path style="fill:#464044; stroke:none;" d="M283 245C285.103 252.689 288.02 260.474 290.698 268C291.862 271.27 293.775 274.501 294.134 278C294.637 282.9 290.794 284.94 289.772 289.168C289.224 291.435 290.334 293.877 291 296C293.713 295.37 296.596 294.753 298.941 293.157C308.085 286.933 299.26 271.781 296.667 264C293.982 255.945 292.523 246.73 283 245z"/>
<path style="fill:#786f74; stroke:none;" d="M334 245C335.769 245.779 337.036 245.912 339 246C337.231 245.221 335.964 245.088 334 245z"/>
<path style="fill:#8a9e8b; stroke:none;" d="M356.333 245.667C356.278 245.722 356.222 246.778 356.667 246.333C356.722 246.278 356.778 245.222 356.333 245.667z"/>
<path style="fill:#febbbf; stroke:none;" d="M110 246L111 247L110 246z"/>
<path style="fill:#7d8c81; stroke:none;" d="M277 246C278.248 246.685 278.548 246.749 280 247C278.752 246.315 278.452 246.251 277 246z"/>
<path style="fill:#565158; stroke:none;" d="M275 248C277.193 260.746 282.971 276.559 289 288C299.902 281.655 290.794 266.934 287.833 258C286.771 254.799 285.799 248.913 282.582 247.121C280.283 245.841 277.254 247.293 275 248M333 289C335.423 274.918 343.911 262.145 346 248C342.316 246.832 337.891 245.114 334.044 246.604C326.919 249.365 324.512 264.463 322.333 271C321.145 274.566 316.672 282.759 319.068 286.298C321.844 290.398 328.909 289.289 333 289z"/>
<path style="fill:#848b7e; stroke:none;" d="M341 246C342.248 246.685 342.548 246.749 344 247C342.752 246.315 342.451 246.251 341 246z"/>
<path style="fill:#739882; stroke:none;" d="M365.333 246.667C365.278 246.722 365.222 247.778 365.667 247.333C365.722 247.278 365.778 246.222 365.333 246.667z"/>
<path style="fill:#9fd0da; stroke:none;" d="M508 246L509 247L508 246z"/>
<path style="fill:#ec817a; stroke:none;" d="M98 247L99 248L98 247z"/>
<path style="fill:#717770; stroke:none;" d="M275.667 247.333C275.222 247.778 276.278 247.722 276.333 247.667C276.778 247.222 275.722 247.278 275.667 247.333z"/>
<path style="fill:#f6a7af; stroke:none;" d="M99 248L100 249L99 248z"/>
<path style="fill:#f4a1aa; stroke:none;" d="M107 248L108 249L107 248z"/>
<path style="fill:#b3b3b6; stroke:none;" d="M273.667 248.333C273.222 248.778 274.278 248.722 274.333 248.667C274.778 248.222 273.722 248.278 273.667 248.333z"/>
<path style="fill:#dedde2; stroke:none;" d="M347 248C341.469 260.478 335.315 275.549 333 289C335.623 287.592 338.35 286.231 340.182 283.79C344.2 278.439 345.543 270.232 347.783 264C348.877 260.957 350.683 257.297 350.564 254.005C350.463 251.206 348.942 249.716 347 248z"/>
<path style="fill:#dfdde2; stroke:none;" d="M275 290C279.741 290.559 283.371 290.055 288 289C286.005 275.494 279.225 261.985 275 249C269.884 250.573 265.797 256.484 266.254 262C267.05 271.604 273.569 280.446 275 290z"/>
<path style="fill:#a2d1ec; stroke:none;" d="M511 249L512 250L511 249z"/>
<path style="fill:#e06b71; stroke:none;" d="M102 250L103 251L102 250z"/>
<path style="fill:#e97787; stroke:none;" d="M104 250L105 251L104 250z"/>
<path style="fill:#9eafa1; stroke:none;" d="M265.333 251.667C265.278 251.722 265.222 252.778 265.667 252.333C265.722 252.278 265.778 251.222 265.333 251.667z"/>
<path style="fill:#9abda4; stroke:none;" d="M270 251L271 252L270 251z"/>
<path style="fill:#a1a0a5; stroke:none;" d="M345 251L346 252L345 251z"/>
<path style="fill:#a6bfac; stroke:none;" d="M350 251L351 252L350 251z"/>
<path style="fill:#9abad0; stroke:none;" d="M522 251L523 252L522 251z"/>
<path style="fill:#682e84; stroke:none;" d="M206 252L206 324C208.292 318.538 207 310.887 207 305L207 269C207 263.65 208.085 256.969 206 252z"/>
<path style="fill:#747a80; stroke:none;" d="M328.333 252.667C328.278 252.722 328.222 253.778 328.667 253.333C328.722 253.278 328.778 252.222 328.333 252.667z"/>
<path style="fill:#c8c1c9; stroke:none;" d="M351 252C349.43 261.234 345.618 273.898 340.775 281.957C337.419 287.542 332.122 288.938 331 296C335.331 295.908 340.309 295.51 343.725 292.49C346.933 289.655 347.829 284.862 349.217 281C352.638 271.482 359.375 260.342 351 252z"/>
<path style="fill:#828287; stroke:none;" d="M276 253L277 254L276 253z"/>
<path style="fill:#a5dada; stroke:none;" d="M511 253L512 254L511 253z"/>
<path style="fill:#91b9a7; stroke:none;" d="M257.333 254.667C257.278 254.722 257.222 255.778 257.667 255.333C257.722 255.278 257.778 254.222 257.333 254.667z"/>
<path style="fill:#acbfaf; stroke:none;" d="M268 254L269 255L268 254z"/>
<path style="fill:#9e9ea3; stroke:none;" d="M344 254L345 255L344 254z"/>
<path style="fill:#71b3b6; stroke:none;" d="M507.667 254.333C507.222 254.778 508.278 254.722 508.333 254.667C508.778 254.222 507.722 254.278 507.667 254.333z"/>
<path style="fill:#a0e0fc; stroke:none;" d="M510 254L511 255L510 254z"/>
<path style="fill:#b58ca0; stroke:none;" d="M527.667 254.333C527.222 254.778 528.278 254.722 528.333 254.667C528.778 254.222 527.722 254.278 527.667 254.333z"/>
<path style="fill:#a7989f; stroke:none;" d="M505 255L506 256L505 255z"/>
<path style="fill:#ec6758; stroke:none;" d="M486 294C478.242 287.428 480.435 282.348 487.425 276.015C493.889 270.16 503.475 264.132 507 256C509.323 257.477 511.487 258.894 514 260C512.234 257.684 510.319 255.17 506.999 255.662C503.425 256.192 500.451 259.654 498 262.011C491.76 268.011 481.124 274.238 477.18 282.015C473.605 289.064 479.594 293.649 486 294z"/>
<path style="fill:#ef7d65; stroke:none;" d="M523 263C528.233 266.787 532.089 271.754 536.289 276.59C538.773 279.45 541.308 282.331 544.015 284.981C545.978 286.903 548.151 289.147 551 289.577C555.36 290.236 559.897 286.552 558.377 282C557.197 278.466 553.631 276.214 551 273.83C545.319 268.682 539.96 263.061 534 258.228C528.058 253.409 524.251 256.389 523 263z"/>
<path style="fill:#b18c9f; stroke:none;" d="M530 255L531 256L530 255z"/>
<path style="fill:#9b969f; stroke:none;" d="M266 256L267 257L266 256z"/>
<path style="fill:#89888c; stroke:none;" d="M277 256L278 257L277 256z"/>
<path style="fill:#75967d; stroke:none;" d="M363.333 256.667C363.278 256.722 363.222 257.778 363.667 257.333C363.722 257.278 363.778 256.222 363.333 256.667z"/>
<path style="fill:#b08d8b; stroke:none;" d="M504 256L505 257L504 256z"/>
<path style="fill:#ef7d65; stroke:none;" d="M507 256C501.941 263.899 493.445 269.744 486.579 276.015C483.373 278.944 479.688 282.203 480.272 286.995C481.194 294.55 487.966 292.639 491.999 288.941C497.911 283.52 503.009 277.029 508.285 271C511.4 267.441 514.262 264.785 515 260L507 256z"/>
<path style="fill:#9c77b3; stroke:none;" d="M62 257L63 258L62 257z"/>
<path style="fill:#adabb0; stroke:none;" d="M343 257L344 258L343 257z"/>
<path style="fill:#acc7d1; stroke:none;" d="M519 257L520 258L519 257z"/>
<path style="fill:#96d8e6; stroke:none;" d="M520 258L521 259L520 258z"/>
<path style="fill:#e86657; stroke:none;" d="M523 258C518.979 267.428 535.308 279.555 541.17 285.999C543.431 288.485 545.927 291.323 549 292.817C556.423 296.425 559.853 289.088 560 283C554.494 291.334 549.482 289.617 543.039 283.003C536.762 276.559 531.2 267.044 523 263L525 258L523 258z"/>
<path style="fill:#938e94; stroke:none;" d="M278 259L279 260L278 259z"/>
<path style="fill:#4e8953; stroke:none;" d="M411 259L411 324C412.981 319.28 412 313.08 412 308L412 276C412 270.65 413.085 263.969 411 259z"/>
<path style="fill:#9ac1d9; stroke:none;" d="M514 259L515 260L514 259z"/>
<path style="fill:#aeced4; stroke:none;" d="M521 259L522 260L521 259z"/>
<path style="fill:#778a7f; stroke:none;" d="M325.333 260.667C325.278 260.722 325.222 261.778 325.667 261.333C325.722 261.278 325.778 260.222 325.333 260.667z"/>
<path style="fill:#c07f86; stroke:none;" d="M521 260L522 261L521 260z"/>
<path style="fill:#987faf; stroke:none;" d="M61 261L62 262L61 261z"/>
<path style="fill:#8fb7a2; stroke:none;" d="M259.333 262.667C259.278 262.722 259.222 263.778 259.667 263.333C259.722 263.278 259.778 262.222 259.333 262.667z"/>
<path style="fill:#9d989e; stroke:none;" d="M279 262L280 263L279 262z"/>
<path style="fill:#847e85; stroke:none;" d="M341 262L342 263L341 262z"/>
<path style="fill:#b88790; stroke:none;" d="M521 263L522 264L521 263z"/>
<path style="fill:#9d979a; stroke:none;" d="M539 263L540 264L539 263z"/>
<path style="fill:#9c9aa4; stroke:none;" d="M495 264L496 265L495 264z"/>
<path style="fill:#ab9095; stroke:none;" d="M540 264L541 265L540 264z"/>
<path style="fill:#a680c0; stroke:none;" d="M60 265L61 266L60 265z"/>
<path style="fill:#a6a4a8; stroke:none;" d="M280 265L281 266L280 265z"/>
<path style="fill:#848388; stroke:none;" d="M340 265L341 266L340 265z"/>
<path style="fill:#9f9696; stroke:none;" d="M494 265L495 266L494 265z"/>
<path style="fill:#7f8075; stroke:none;" d="M323.333 266.667C323.278 266.722 323.222 267.778 323.667 267.333C323.722 267.278 323.778 266.222 323.333 266.667z"/>
<path style="fill:#a9948a; stroke:none;" d="M493 266L494 267L493 266z"/>
<path style="fill:#c28681; stroke:none;" d="M492 267L493 268L492 267z"/>
<path style="fill:#b0adb4; stroke:none;" d="M281 268L282 269L281 268z"/>
<path style="fill:#918c93; stroke:none;" d="M339 268L340 269L339 268z"/>
<path style="fill:#a18ab9; stroke:none;" d="M59 269L60 270L59 269z"/>
<path style="fill:#777f79; stroke:none;" d="M322.333 269.667C322.278 269.722 322.222 270.778 322.667 270.333C322.722 270.278 322.778 269.222 322.333 269.667z"/>
<path style="fill:#8d9ab1; stroke:none;" d="M509 269L510 270L509 269z"/>
<path style="fill:#b9b7bc; stroke:none;" d="M119 270C120.248 270.685 120.548 270.749 122 271C120.752 270.315 120.452 270.251 119 270z"/>
<path style="fill:#b7b5ba; stroke:none;" d="M129 270C130.248 270.685 130.548 270.749 132 271C130.752 270.315 130.452 270.251 129 270z"/>
<path style="fill:#7e787f; stroke:none;" d="M282 270L283 271L282 270z"/>
<path style="fill:#a093a3; stroke:none;" d="M508 270L509 271L508 270z"/>
<path style="fill:#675a67; stroke:none;" d="M119 271C119.429 273.864 121.62 285.826 125.856 285.079C129.792 284.384 131.52 274.202 132 271C127.839 272.179 125.545 274.474 122 271L119 271z"/>
<path style="fill:#d2d0d8; stroke:none;" d="M132.333 271.667C132.278 271.722 132.222 272.778 132.667 272.333C132.722 272.278 132.778 271.222 132.333 271.667z"/>
<path style="fill:#b4afb6; stroke:none;" d="M282 271L283 272L282 271z"/>
<path style="fill:#948f96; stroke:none;" d="M338 271L339 272L338 271z"/>
<path style="fill:#b78b99; stroke:none;" d="M507 271L508 272L507 271z"/>
<path style="fill:#9c9ca2; stroke:none;" d="M122 272L123 273L122 272z"/>
<path style="fill:#b8adb9; stroke:none;" d="M128 272L129 273L128 272z"/>
<path style="fill:#ab8ec5; stroke:none;" d="M58 273L59 274L58 273z"/>
<path style="fill:#a6a1a8; stroke:none;" d="M123 273C124.769 273.779 126.036 273.912 128 274C126.231 273.221 124.964 273.088 123 273z"/>
<path style="fill:#778c78; stroke:none;" d="M300 273L300 276C300.696 274.446 300.696 274.554 300 273z"/>
<path style="fill:#a89197; stroke:none;" d="M550 273L551 274L550 273z"/>
<path style="fill:#b2b2b6; stroke:none;" d="M119 274L120 275L119 274z"/>
<path style="fill:#9b959c; stroke:none;" d="M131 274L132 275L131 274z"/>
<path style="fill:#a09ba2; stroke:none;" d="M337 274L338 275L337 274z"/>
<path style="fill:#9c9a93; stroke:none;" d="M484 274L485 275L484 274z"/>
<path style="fill:#a99592; stroke:none;" d="M551 274L552 275L551 274z"/>
<path style="fill:#75757d; stroke:none;" d="M320.333 275.667C320.278 275.722 320.222 276.778 320.667 276.333C320.722 276.278 320.778 275.222 320.333 275.667z"/>
<path style="fill:#9f9392; stroke:none;" d="M483 275L484 276L483 275z"/>
<path style="fill:#c18980; stroke:none;" d="M552 275L553 276L552 275z"/>
<path style="fill:#847f86; stroke:none;" d="M284 276L285 277L284 276z"/>
<path style="fill:#b48d86; stroke:none;" d="M482 276L483 277L482 276z"/>
<path style="fill:#a999c4; stroke:none;" d="M57 277L58 278L57 277z"/>
<path style="fill:#c4c6cb; stroke:none;" d="M120 277L121 278L120 277z"/>
<path style="fill:#b2b0b7; stroke:none;" d="M124 277L125 278L124 277z"/>
<path style="fill:#ffffff; stroke:none;" d="M125.333 277.667C125.278 277.722 125.222 278.778 125.667 278.333C125.722 278.278 125.778 277.222 125.333 277.667z"/>
<path style="fill:#d3ced5; stroke:none;" d="M126 277L127 278L126 277z"/>
<path style="fill:#beb9c0; stroke:none;" d="M130 277L131 278L130 277z"/>
<path style="fill:#7a8b75; stroke:none;" d="M319 277L319 280C319.696 278.446 319.696 278.554 319 277z"/>
<path style="fill:#a8a5ac; stroke:none;" d="M336 277L337 278L336 277z"/>
<path style="fill:#53ceee; stroke:none;" d="M476 281C478.249 279.846 478.846 279.249 480 277C477.751 278.154 477.154 278.751 476 281z"/>
<path style="fill:#7aaea0; stroke:none;" d="M264.333 278.667C264.278 278.722 264.222 279.778 264.667 279.333C264.722 279.278 264.778 278.222 264.333 278.667z"/>
<path style="fill:#a297a0; stroke:none;" d="M121 279L122 280L121 279z"/>
<path style="fill:#cecdd3; stroke:none;" d="M125 279L126 280L125 279z"/>
<path style="fill:#91868f; stroke:none;" d="M129 279L130 280L129 279z"/>
<path style="fill:#8c868d; stroke:none;" d="M285 279L286 280L285 279z"/>
<path style="fill:#768a76; stroke:none;" d="M318 280L318 283C318.696 281.446 318.696 281.554 318 280z"/>
<path style="fill:#b0acb4; stroke:none;" d="M335 280L336 281L335 280z"/>
<path style="fill:#ac9091; stroke:none;" d="M499 280L500 281L499 280z"/>
<path style="fill:#9e939f; stroke:none;" d="M536 280L537 281L536 280z"/>
<path style="fill:#a58b95; stroke:none;" d="M537 281L538 282L537 281z"/>
<path style="fill:#b8b3ba; stroke:none;" d="M122 282L123 283L122 282z"/>
<path style="fill:#a8a1a9; stroke:none;" d="M128 282L129 283L128 282z"/>
<path style="fill:#918f94; stroke:none;" d="M286 282L287 283L286 282z"/>
<path style="fill:#8aa2a9; stroke:none;" d="M476 282L477 283L476 282z"/>
<path style="fill:#b78686; stroke:none;" d="M538 282L539 283L538 282z"/>
<path style="fill:#a89299; stroke:none;" d="M559 282L560 283L559 282z"/>
<path style="fill:#b1a7d1; stroke:none;" d="M60.6667 283.333C60.2222 283.778 61.2778 283.722 61.3333 283.667C61.7778 283.222 60.7222 283.278 60.6667 283.333z"/>
<path style="fill:#7a9181; stroke:none;" d="M317 283L317 289C317.951 286.715 317.951 285.285 317 283z"/>
<path style="fill:#b8b5bd; stroke:none;" d="M334 283L335 284L334 283z"/>
<path style="fill:#633d87; stroke:none;" d="M60 284C62.2764 287.094 64.7386 289.955 68 292L68 285L60 284z"/>
<path style="fill:#8e7eab; stroke:none;" d="M64 284L65 285L64 284z"/>
<path style="fill:#b9add2; stroke:none;" d="M65 284L66 285L65 284z"/>
<path style="fill:#5a515a; stroke:none;" d="M303 284L303 288C303.71 286.241 303.71 285.759 303 284z"/>
<path style="fill:#917ba8; stroke:none;" d="M68 285L68 291C68.9511 288.715 68.9511 287.285 68 285z"/>
<path style="fill:#d1ced5; stroke:none;" d="M123 285L124 286L123 285z"/>
<path style="fill:#c5c0c7; stroke:none;" d="M127 285L128 286L127 285z"/>
<path style="fill:#9f9da2; stroke:none;" d="M287 285L288 286L287 285z"/>
<path style="fill:#858086; stroke:none;" d="M333 285L334 286L333 285z"/>
<path style="fill:#a19ea5; stroke:none;" d="M124 286C125.248 286.685 125.548 286.749 127 287C125.752 286.315 125.452 286.251 124 286z"/>
<path style="fill:#afb1b0; stroke:none;" d="M269 287C270.506 287.683 271.315 287.826 273 288C271.494 287.317 270.685 287.174 269 287z"/>
<path style="fill:#807b82; stroke:none;" d="M288.333 287.667C288.278 287.722 288.222 288.778 288.667 288.333C288.722 288.278 288.778 287.222 288.333 287.667z"/>
<path style="fill:#453b41; stroke:none;" d="M318 287C319.667 292.801 324.475 294.687 330 296C331.012 293.627 331.622 291.551 332 289C326.988 289.167 322.839 288.116 318 287z"/>
<path style="fill:#9a8dbd; stroke:none;" d="M137 288L138 289L137 288z"/>
<path style="fill:#c8c3cb; stroke:none;" d="M276 290C278.993 295.707 285.105 295.951 291 296L289 289C284.537 289.386 280.519 290.365 276 290z"/>
<path style="fill:#989198; stroke:none;" d="M332 289L333 290L332 289z"/>
<path style="fill:#8f9ea8; stroke:none;" d="M476 289L477 290L476 289z"/>
<path style="fill:#87ac8f; stroke:none;" d="M275 290L276 291L275 290z"/>
<path style="fill:#649170; stroke:none;" d="M318 290C319.373 292.547 320.218 293.188 323 294C321.412 292.373 319.922 291.226 318 290z"/>
<path style="fill:#9b9b96; stroke:none;" d="M490 290L491 291L490 290z"/>
<path style="fill:#563177; stroke:none;" d="M68 291C70.1708 294.349 73.2126 293.992 77 294L98 294C88.7539 290.12 77.573 295.056 68 291z"/>
<path style="fill:#7b7079; stroke:none;" d="M289 291L290 292L289 291z"/>
<path style="fill:#b0928f; stroke:none;" d="M489 291L490 292L489 291z"/>
<path style="fill:#a38d92; stroke:none;" d="M546 291L547 292L546 291z"/>
<path style="fill:#d3c5dd; stroke:none;" d="M70 292C77.1686 295.008 88.2391 293 96 293C88.8314 289.992 77.7609 292 70 292z"/>
<path style="fill:#dee7f6; stroke:none;" d="M104 295C109.447 295.734 118.698 300.777 120 293C115.325 293 106.816 290.916 104 295z"/>
<path style="fill:#d4c8e5; stroke:none;" d="M126 292C128.332 292.985 130.457 292.981 133 293C130.668 292.015 128.543 292.019 126 292z"/>
<path style="fill:#a099a0; stroke:none;" d="M331 292L332 293L331 292z"/>
<path style="fill:#89a78e; stroke:none;" d="M344 292L345 293L344 292z"/>
<path style="fill:#ac9092; stroke:none;" d="M488 292L489 293L488 292z"/>
<path style="fill:#8c7ba9; stroke:none;" d="M99 293L100 294L99 293z"/>
<path style="fill:#c5d9f1; stroke:none;" d="M120 293L119 299C122.993 298.364 124.364 296.993 125 293L120 293z"/>
<path style="fill:#9583b0; stroke:none;" d="M125 293L126 294L125 293z"/>
<path style="fill:#bf8a86; stroke:none;" d="M486 293L487 294L486 293z"/>
<path style="fill:#9b909c; stroke:none;" d="M549 293L550 294L549 293z"/>
<path style="fill:#9383b2; stroke:none;" d="M103 294L104 295L103 294z"/>
<path style="fill:#857883; stroke:none;" d="M290 294L291 295L290 294z"/>
<path style="fill:#88a991; stroke:none;" d="M340 294L341 295L340 294z"/>
<path style="fill:#9988b4; stroke:none;" d="M107 295L108 296L107 295z"/>
<path style="fill:#738075; stroke:none;" d="M326.667 295.333C326.222 295.778 327.278 295.722 327.333 295.667C327.778 295.222 326.722 295.278 326.667 295.333z"/>
<path style="fill:#b6c0b2; stroke:none;" d="M330 295C331.314 296.618 331.877 296.693 334 297C332.623 296.089 331.56 295.596 330 295z"/>
<path style="fill:#ac88cb; stroke:none;" d="M111 296L112 297L111 296z"/>
<path style="fill:#b3bfac; stroke:none;" d="M287 296C288.506 296.683 289.315 296.826 291 297C289.494 296.317 288.685 296.174 287 296z"/>
<path style="fill:#a696c3; stroke:none;" d="M115 297L116 298L115 297z"/>
<path style="fill:#998cb8; stroke:none;" d="M118 298L119 299L118 298z"/>
<path style="fill:#9085b4; stroke:none;" d="M123 298L124 299L123 298z"/>
</svg>